<?xml version="1.0" encoding="UTF-8"?>
<svg xmlns="http://www.w3.org/2000/svg" xmlns:xlink="http://www.w3.org/1999/xlink" width="4000" height="4000" viewBox="0 0 4000 4000">
<defs>
<clipPath id="clip-0">
<path clip-rule="nonzero" d="M 4000 4000 L 0 4000 L 0 0 L 4000 0 L 4000 4000 M 1694.480469 2825.789062 C 1703.691406 2957 1767.230469 3058.53125 1847.609375 3061.171875 C 1848.691406 3061.210938 1849.75 3061.21875 1850.820312 3061.21875 C 1922.398438 3061.21875 1985.320312 2982.230469 2009.601562 2871.800781 C 2023.71875 2872.21875 2037.941406 2872.429688 2052.210938 2872.429688 C 2076.878906 2872.429688 2101.78125 2871.800781 2126.828125 2870.511719 C 2165.101562 2868.550781 2202.691406 2865.121094 2239.46875 2860.300781 C 2252.269531 2896.5 2269.070312 2929.53125 2289.179688 2957.460938 C 2330.941406 3015.480469 2383.710938 3047.429688 2437.769531 3047.429688 C 2443.359375 3047.429688 2449 3047.078125 2454.539062 3046.390625 C 2511.941406 3039.25 2559.910156 2997.21875 2589.621094 2928.039062 C 2611.488281 2877.121094 2621.628906 2815.238281 2619.128906 2750.300781 C 2632.710938 2743.820312 2646.128906 2737.089844 2659.261719 2730.160156 C 2709.199219 2799.019531 2772.328125 2841.121094 2828.140625 2841.121094 C 2841.761719 2841.121094 2854.960938 2838.609375 2867.421875 2833.359375 C 2946.300781 2800.128906 2967.300781 2669.148438 2918.070312 2534.46875 C 3049.511719 2392.46875 3121.300781 2217 3111.730469 2030.519531 C 3090.371094 1614.101562 2671.109375 1293.808594 2120.078125 1293.808594 C 2095.671875 1293.808594 2070.941406 1294.441406 2046.039062 1295.71875 C 1458.960938 1325.828125 1001.121094 1702.78125 1023.421875 2137.648438 C 1039.929688 2459.46875 1314.761719 2722.828125 1694.480469 2825.789062 "/>
</clipPath>
<clipPath id="clip-1">
<path clip-rule="nonzero" d="M 4000 4000 L 0 4000 L 0 0 L 4000 0 L 4000 4000 M 1694.480469 2825.789062 C 1703.691406 2957 1767.230469 3058.53125 1847.609375 3061.171875 C 1848.691406 3061.210938 1849.75 3061.21875 1850.820312 3061.21875 C 1922.398438 3061.21875 1985.320312 2982.230469 2009.601562 2871.800781 C 2023.71875 2872.21875 2037.941406 2872.429688 2052.210938 2872.429688 C 2076.878906 2872.429688 2101.78125 2871.800781 2126.828125 2870.511719 C 2165.101562 2868.550781 2202.691406 2865.121094 2239.46875 2860.300781 C 2252.269531 2896.5 2269.070312 2929.53125 2289.179688 2957.460938 C 2330.941406 3015.480469 2383.710938 3047.429688 2437.769531 3047.429688 C 2443.359375 3047.429688 2449 3047.078125 2454.539062 3046.390625 C 2511.941406 3039.25 2559.910156 2997.21875 2589.621094 2928.039062 C 2611.488281 2877.121094 2621.628906 2815.238281 2619.128906 2750.300781 C 2632.710938 2743.820312 2646.128906 2737.089844 2659.261719 2730.160156 C 2709.199219 2799.019531 2772.328125 2841.121094 2828.140625 2841.121094 C 2841.761719 2841.121094 2854.960938 2838.609375 2867.421875 2833.359375 C 2946.300781 2800.128906 2967.300781 2669.148438 2918.070312 2534.46875 C 3049.511719 2392.46875 3121.300781 2217 3111.730469 2030.519531 C 3090.371094 1614.101562 2671.109375 1293.808594 2120.078125 1293.808594 C 2095.671875 1293.808594 2070.941406 1294.441406 2046.039062 1295.71875 C 1458.960938 1325.828125 1001.121094 1702.78125 1023.421875 2137.648438 C 1039.929688 2459.46875 1314.761719 2722.828125 1694.480469 2825.789062 "/>
</clipPath>
<radialGradient id="radial-pattern-0" gradientUnits="userSpaceOnUse" cx="0" cy="0" fx="0" fy="0" r="2000" gradientTransform="matrix(1, 0, 0, 1, 2000, 2000)">
<stop offset="0" stop-color="rgb(98.979187%, 94.691467%, 61.083984%)" stop-opacity="1"/>
<stop offset="0.015625" stop-color="rgb(98.965454%, 94.493103%, 60.708618%)" stop-opacity="1"/>
<stop offset="0.0273438" stop-color="rgb(98.965454%, 94.476318%, 60.426331%)" stop-opacity="1"/>
<stop offset="0.0390625" stop-color="rgb(98.965454%, 94.464111%, 60.142517%)" stop-opacity="1"/>
<stop offset="0.0507812" stop-color="rgb(98.965454%, 94.450378%, 59.860229%)" stop-opacity="1"/>
<stop offset="0.0625" stop-color="rgb(98.965454%, 94.439697%, 59.635925%)" stop-opacity="1"/>
<stop offset="0.0664062" stop-color="rgb(98.965454%, 94.432068%, 59.460449%)" stop-opacity="1"/>
<stop offset="0.0703125" stop-color="rgb(98.965454%, 94.422913%, 59.27124%)" stop-opacity="1"/>
<stop offset="0.0742188" stop-color="rgb(98.965454%, 94.413757%, 59.083557%)" stop-opacity="1"/>
<stop offset="0.078125" stop-color="rgb(98.965454%, 94.403076%, 58.831787%)" stop-opacity="1"/>
<stop offset="0.0898438" stop-color="rgb(98.965454%, 94.389343%, 58.535767%)" stop-opacity="1"/>
<stop offset="0.101562" stop-color="rgb(98.965454%, 94.37561%, 58.227539%)" stop-opacity="1"/>
<stop offset="0.113281" stop-color="rgb(98.965454%, 94.363403%, 57.965088%)" stop-opacity="1"/>
<stop offset="0.117188" stop-color="rgb(98.965454%, 94.354248%, 57.775879%)" stop-opacity="1"/>
<stop offset="0.121094" stop-color="rgb(98.965454%, 94.345093%, 57.588196%)" stop-opacity="1"/>
<stop offset="0.125" stop-color="rgb(98.847961%, 94.297791%, 57.339478%)" stop-opacity="1"/>
<stop offset="0.136719" stop-color="rgb(98.648071%, 94.161987%, 57.038879%)" stop-opacity="1"/>
<stop offset="0.148438" stop-color="rgb(98.558044%, 93.945312%, 56.724548%)" stop-opacity="1"/>
<stop offset="0.160156" stop-color="rgb(98.548889%, 93.814087%, 56.416321%)" stop-opacity="1"/>
<stop offset="0.171875" stop-color="rgb(98.548889%, 93.804932%, 56.214905%)" stop-opacity="1"/>
<stop offset="0.175781" stop-color="rgb(98.548889%, 93.797302%, 56.060791%)" stop-opacity="1"/>
<stop offset="0.179688" stop-color="rgb(98.548889%, 93.789673%, 55.873108%)" stop-opacity="1"/>
<stop offset="0.183594" stop-color="rgb(98.548889%, 93.780518%, 55.685425%)" stop-opacity="1"/>
<stop offset="0.1875" stop-color="rgb(98.550415%, 93.768311%, 55.415344%)" stop-opacity="1"/>
<stop offset="0.199219" stop-color="rgb(98.550415%, 93.754578%, 55.097961%)" stop-opacity="1"/>
<stop offset="0.210938" stop-color="rgb(98.550415%, 93.740845%, 54.815674%)" stop-opacity="1"/>
<stop offset="0.222656" stop-color="rgb(98.550415%, 93.728638%, 54.533386%)" stop-opacity="1"/>
<stop offset="0.234375" stop-color="rgb(98.550415%, 93.714905%, 54.25415%)" stop-opacity="1"/>
<stop offset="0.246094" stop-color="rgb(98.550415%, 93.702698%, 53.971863%)" stop-opacity="1"/>
<stop offset="0.257812" stop-color="rgb(98.550415%, 93.692017%, 53.736877%)" stop-opacity="1"/>
<stop offset="0.265625" stop-color="rgb(98.547363%, 93.641663%, 53.540039%)" stop-opacity="1"/>
<stop offset="0.273438" stop-color="rgb(98.536682%, 93.504333%, 53.327942%)" stop-opacity="1"/>
<stop offset="0.28125" stop-color="rgb(98.526001%, 93.356323%, 53.112793%)" stop-opacity="1"/>
<stop offset="0.289062" stop-color="rgb(98.522949%, 93.296814%, 52.91748%)" stop-opacity="1"/>
<stop offset="0.296875" stop-color="rgb(98.522949%, 93.287659%, 52.728271%)" stop-opacity="1"/>
<stop offset="0.304688" stop-color="rgb(98.522949%, 93.280029%, 52.542114%)" stop-opacity="1"/>
<stop offset="0.3125" stop-color="rgb(98.522949%, 93.270874%, 52.354431%)" stop-opacity="1"/>
<stop offset="0.320312" stop-color="rgb(98.522949%, 93.263245%, 52.168274%)" stop-opacity="1"/>
<stop offset="0.328125" stop-color="rgb(98.522949%, 93.252563%, 51.948547%)" stop-opacity="1"/>
<stop offset="0.335938" stop-color="rgb(98.522949%, 93.238831%, 51.637268%)" stop-opacity="1"/>
<stop offset="0.34375" stop-color="rgb(98.522949%, 93.223572%, 51.290894%)" stop-opacity="1"/>
<stop offset="0.351562" stop-color="rgb(98.522949%, 93.211365%, 51.037598%)" stop-opacity="1"/>
<stop offset="0.359375" stop-color="rgb(98.521423%, 93.179321%, 50.845337%)" stop-opacity="1"/>
<stop offset="0.367188" stop-color="rgb(98.512268%, 93.058777%, 50.639343%)" stop-opacity="1"/>
<stop offset="0.375" stop-color="rgb(98.501587%, 92.895508%, 50.424194%)" stop-opacity="1"/>
<stop offset="0.382812" stop-color="rgb(98.495483%, 92.814636%, 50.132751%)" stop-opacity="1"/>
<stop offset="0.398438" stop-color="rgb(98.495483%, 92.797852%, 49.758911%)" stop-opacity="1"/>
<stop offset="0.414062" stop-color="rgb(98.497009%, 92.781067%, 49.386597%)" stop-opacity="1"/>
<stop offset="0.429688" stop-color="rgb(98.497009%, 92.764282%, 49.012756%)" stop-opacity="1"/>
<stop offset="0.445312" stop-color="rgb(98.497009%, 92.747498%, 48.638916%)" stop-opacity="1"/>
<stop offset="0.460938" stop-color="rgb(98.497009%, 92.735291%, 48.358154%)" stop-opacity="1"/>
<stop offset="0.46875" stop-color="rgb(98.495483%, 92.723083%, 48.165894%)" stop-opacity="1"/>
<stop offset="0.476562" stop-color="rgb(98.48938%, 92.617798%, 47.866821%)" stop-opacity="1"/>
<stop offset="0.484375" stop-color="rgb(98.475647%, 92.428589%, 47.467041%)" stop-opacity="1"/>
<stop offset="0.492188" stop-color="rgb(98.469543%, 92.323303%, 47.08252%)" stop-opacity="1"/>
<stop offset="0.507812" stop-color="rgb(98.469543%, 92.30957%, 46.755981%)" stop-opacity="1"/>
<stop offset="0.519531" stop-color="rgb(98.469543%, 92.297363%, 46.47522%)" stop-opacity="1"/>
<stop offset="0.53125" stop-color="rgb(98.469543%, 92.285156%, 46.19751%)" stop-opacity="1"/>
<stop offset="0.542969" stop-color="rgb(98.469543%, 92.272949%, 45.916748%)" stop-opacity="1"/>
<stop offset="0.554688" stop-color="rgb(98.469543%, 92.260742%, 45.637512%)" stop-opacity="1"/>
<stop offset="0.566406" stop-color="rgb(98.469543%, 92.251587%, 45.451355%)" stop-opacity="1"/>
<stop offset="0.570312" stop-color="rgb(98.469543%, 92.247009%, 45.324707%)" stop-opacity="1"/>
<stop offset="0.574219" stop-color="rgb(98.469543%, 92.23938%, 45.152283%)" stop-opacity="1"/>
<stop offset="0.578125" stop-color="rgb(98.469543%, 92.230225%, 44.9646%)" stop-opacity="1"/>
<stop offset="0.582031" stop-color="rgb(98.469543%, 92.222595%, 44.779968%)" stop-opacity="1"/>
<stop offset="0.585938" stop-color="rgb(98.461914%, 92.095947%, 44.512939%)" stop-opacity="1"/>
<stop offset="0.597656" stop-color="rgb(98.448181%, 91.905212%, 44.194031%)" stop-opacity="1"/>
<stop offset="0.609375" stop-color="rgb(98.443604%, 91.830444%, 43.90564%)" stop-opacity="1"/>
<stop offset="0.621094" stop-color="rgb(98.443604%, 91.818237%, 43.626404%)" stop-opacity="1"/>
<stop offset="0.632812" stop-color="rgb(98.443604%, 91.809082%, 43.39447%)" stop-opacity="1"/>
<stop offset="0.640625" stop-color="rgb(98.443604%, 91.799927%, 43.209839%)" stop-opacity="1"/>
<stop offset="0.648438" stop-color="rgb(98.443604%, 91.792297%, 43.023682%)" stop-opacity="1"/>
<stop offset="0.65625" stop-color="rgb(98.443604%, 91.784668%, 42.837524%)" stop-opacity="1"/>
<stop offset="0.664062" stop-color="rgb(98.443604%, 91.775513%, 42.651367%)" stop-opacity="1"/>
<stop offset="0.671875" stop-color="rgb(98.443604%, 91.767883%, 42.46521%)" stop-opacity="1"/>
<stop offset="0.679688" stop-color="rgb(98.443604%, 91.760254%, 42.279053%)" stop-opacity="1"/>
<stop offset="0.6875" stop-color="rgb(98.443604%, 91.752625%, 42.094421%)" stop-opacity="1"/>
<stop offset="0.695312" stop-color="rgb(98.443604%, 91.740417%, 41.815186%)" stop-opacity="1"/>
<stop offset="0.710938" stop-color="rgb(98.432922%, 91.58783%, 41.426086%)" stop-opacity="1"/>
<stop offset="0.726562" stop-color="rgb(98.419189%, 91.395569%, 41.033936%)" stop-opacity="1"/>
<stop offset="0.742188" stop-color="rgb(98.416138%, 91.337585%, 40.658569%)" stop-opacity="1"/>
<stop offset="0.757812" stop-color="rgb(98.417664%, 91.323853%, 40.336609%)" stop-opacity="1"/>
<stop offset="0.785156" stop-color="rgb(98.417664%, 91.313171%, 40.061951%)" stop-opacity="1"/>
<stop offset="0.796875" stop-color="rgb(98.417664%, 91.300964%, 39.782715%)" stop-opacity="1"/>
<stop offset="0.808594" stop-color="rgb(98.417664%, 91.288757%, 39.505005%)" stop-opacity="1"/>
<stop offset="0.820312" stop-color="rgb(98.417664%, 91.278076%, 39.273071%)" stop-opacity="1"/>
<stop offset="0.828125" stop-color="rgb(98.417664%, 91.270447%, 39.08844%)" stop-opacity="1"/>
<stop offset="0.835938" stop-color="rgb(98.414612%, 91.233826%, 38.870239%)" stop-opacity="1"/>
<stop offset="0.84375" stop-color="rgb(98.406982%, 91.107178%, 38.551331%)" stop-opacity="1"/>
<stop offset="0.851562" stop-color="rgb(98.394775%, 90.945435%, 38.192749%)" stop-opacity="1"/>
<stop offset="0.859375" stop-color="rgb(98.390198%, 90.867615%, 37.843323%)" stop-opacity="1"/>
<stop offset="0.875" stop-color="rgb(98.390198%, 90.852356%, 37.472534%)" stop-opacity="1"/>
<stop offset="0.890625" stop-color="rgb(98.390198%, 90.838623%, 37.149048%)" stop-opacity="1"/>
<stop offset="0.902344" stop-color="rgb(98.390198%, 90.826416%, 36.869812%)" stop-opacity="1"/>
<stop offset="0.914062" stop-color="rgb(98.390198%, 90.815735%, 36.639404%)" stop-opacity="1"/>
<stop offset="0.921875" stop-color="rgb(98.390198%, 90.808105%, 36.454773%)" stop-opacity="1"/>
<stop offset="0.929688" stop-color="rgb(98.391724%, 90.797424%, 36.177063%)" stop-opacity="1"/>
<stop offset="0.945312" stop-color="rgb(98.387146%, 90.733337%, 35.848999%)" stop-opacity="1"/>
<stop offset="0.957031" stop-color="rgb(98.376465%, 90.585327%, 35.60791%)" stop-opacity="1"/>
<stop offset="0.964844" stop-color="rgb(98.36731%, 90.449524%, 35.319519%)" stop-opacity="1"/>
<stop offset="0.980469" stop-color="rgb(98.364258%, 90.400696%, 35.040283%)" stop-opacity="1"/>
<stop offset="0.988281" stop-color="rgb(98.364258%, 90.390015%, 34.809875%)" stop-opacity="1"/>
<stop offset="1" stop-color="rgb(98.364258%, 90.385437%, 34.671021%)" stop-opacity="1"/>
</radialGradient>
</defs>
<g clip-path="url(#clip-0)">
<g clip-path="url(#clip-1)">
<rect x="-400" y="-400" width="4800" height="4800" fill="url(#radial-pattern-0)"/>
</g>
</g>
<path fill-rule="nonzero" fill="rgb(83.679199%, 76.977539%, 30.067444%)" fill-opacity="1" d="M 2955.089844 3366.980469 C 2955.089844 3430.488281 2548.851562 3481.96875 2047.71875 3481.96875 C 1546.589844 3481.96875 1140.351562 3430.488281 1140.351562 3366.980469 C 1140.351562 3303.46875 1546.589844 3251.988281 2047.71875 3251.988281 C 2548.851562 3251.988281 2955.089844 3303.46875 2955.089844 3366.980469 "/>
<path fill-rule="nonzero" fill="rgb(89.450073%, 76.954651%, 5.285645%)" fill-opacity="1" d="M 1631.71875 1553.308594 C 1627.851562 1678.25 1542.53125 1776.980469 1441.140625 1773.839844 C 1339.75 1770.710938 1260.691406 1666.890625 1264.558594 1541.960938 C 1268.421875 1417.03125 1382.921875 1319.199219 1455.128906 1321.429688 C 1524.878906 1323.589844 1635.578125 1428.390625 1631.71875 1553.308594 "/>
<path fill-rule="nonzero" fill="rgb(19.889832%, 13.061523%, 8.534241%)" fill-opacity="1" d="M 1452.691406 1358.890625 C 1431.210938 1358.890625 1394.28125 1375.039062 1360.191406 1411.109375 C 1339.308594 1433.199219 1304 1479.730469 1302.039062 1543.121094 C 1300.429688 1594.960938 1315.058594 1643.878906 1343.210938 1680.851562 C 1369.578125 1715.488281 1404.769531 1735.199219 1442.300781 1736.359375 C 1480.378906 1737.53125 1517.359375 1719.390625 1545.941406 1685.550781 C 1575.5 1650.519531 1592.660156 1603.148438 1594.230469 1552.160156 C 1596.210938 1488.46875 1562.671875 1439.308594 1542.5 1415.671875 C 1509.96875 1377.550781 1473.808594 1359.53125 1453.96875 1358.910156 C 1453.550781 1358.898438 1453.121094 1358.890625 1452.691406 1358.890625 Z M 1445.839844 1811.410156 C 1443.890625 1811.410156 1441.921875 1811.378906 1439.980469 1811.320312 C 1409.101562 1810.371094 1379.460938 1802.039062 1351.878906 1786.558594 C 1325.871094 1771.96875 1302.878906 1751.691406 1283.539062 1726.289062 C 1244.988281 1675.671875 1224.941406 1609.789062 1227.070312 1540.800781 C 1229.101562 1475.449219 1257.011719 1411.101562 1305.679688 1359.601562 C 1350.46875 1312.191406 1405.429688 1283.890625 1452.691406 1283.890625 C 1453.898438 1283.890625 1455.101562 1283.910156 1456.289062 1283.949219 C 1479.890625 1284.679688 1506.058594 1293.289062 1531.988281 1308.851562 C 1556.070312 1323.300781 1579.429688 1343.410156 1599.558594 1366.988281 C 1646.5 1422.011719 1671.238281 1488.601562 1669.199219 1554.46875 C 1667.101562 1622.308594 1643.679688 1686.039062 1603.25 1733.929688 C 1561.058594 1783.898438 1505.160156 1811.410156 1445.839844 1811.410156 "/>
<path fill-rule="nonzero" fill="rgb(89.450073%, 76.954651%, 5.285645%)" fill-opacity="1" d="M 1572.21875 2694.589844 C 1548.839844 2846.921875 1457.640625 2959.328125 1368.5 2945.660156 C 1279.371094 2931.980469 1226.058594 2797.390625 1249.441406 2645.050781 C 1272.808594 2492.71875 1364.019531 2380.308594 1453.160156 2393.980469 C 1542.289062 2407.660156 1595.601562 2542.25 1572.21875 2694.589844 "/>
<path fill-rule="nonzero" fill="rgb(19.889832%, 13.061523%, 8.534241%)" fill-opacity="1" d="M 1438.371094 2431.320312 C 1381.988281 2431.320312 1308.269531 2515.269531 1287.460938 2650.890625 C 1265.949219 2791.039062 1315.980469 2898.679688 1374.339844 2907.628906 C 1377.289062 2908.089844 1380.300781 2908.320312 1383.289062 2908.320312 C 1439.671875 2908.320312 1513.390625 2824.371094 1534.199219 2688.75 C 1544.488281 2621.71875 1539.128906 2556.980469 1519.121094 2506.449219 C 1502.121094 2463.53125 1475.949219 2436.398438 1447.320312 2432.011719 C 1444.371094 2431.550781 1441.359375 2431.320312 1438.371094 2431.320312 Z M 1383.289062 2985.25 C 1376.410156 2985.25 1369.46875 2984.71875 1362.671875 2983.679688 C 1250.851562 2966.519531 1184.410156 2815.210938 1211.410156 2639.21875 C 1223 2563.730469 1250.859375 2493.628906 1289.878906 2441.851562 C 1332.359375 2385.449219 1385.089844 2354.390625 1438.371094 2354.390625 C 1445.25 2354.390625 1452.191406 2354.921875 1458.988281 2355.960938 C 1516.160156 2364.738281 1562.910156 2408.121094 1590.640625 2478.121094 C 1615.609375 2541.148438 1622.570312 2620.101562 1610.238281 2700.421875 C 1598.660156 2775.910156 1570.789062 2846.011719 1531.78125 2897.789062 C 1489.300781 2954.191406 1436.570312 2985.25 1383.289062 2985.25 "/>
<path fill-rule="nonzero" fill="rgb(89.450073%, 76.954651%, 5.285645%)" fill-opacity="1" d="M 2577.378906 2711.140625 C 2596.398438 2864.078125 2539.28125 2997.089844 2449.789062 3008.21875 C 2360.308594 3019.351562 2272.339844 2904.390625 2253.308594 2751.449219 C 2234.28125 2598.511719 2291.398438 2465.5 2380.890625 2454.359375 C 2470.378906 2443.230469 2558.351562 2558.191406 2577.378906 2711.140625 "/>
<path fill-rule="nonzero" fill="rgb(19.889832%, 13.061523%, 8.534241%)" fill-opacity="1" d="M 2392.921875 2492.089844 C 2390.488281 2492.089844 2388.039062 2492.238281 2385.640625 2492.539062 C 2356.898438 2496.109375 2329.96875 2522.488281 2311.75 2564.910156 C 2290.308594 2614.839844 2283.109375 2679.410156 2291.480469 2746.699219 C 2299.460938 2810.839844 2320.820312 2869.730469 2351.621094 2912.53125 C 2378.140625 2949.371094 2409.539062 2970.5 2437.769531 2970.5 C 2440.191406 2970.5 2442.640625 2970.351562 2445.050781 2970.050781 C 2473.789062 2966.480469 2500.71875 2940.101562 2518.929688 2897.679688 C 2540.378906 2847.738281 2547.578125 2783.179688 2539.210938 2715.878906 C 2531.230469 2651.75 2509.871094 2592.859375 2479.070312 2550.058594 C 2452.550781 2513.21875 2421.148438 2492.089844 2392.921875 2492.089844 M 2437.769531 3047.429688 C 2383.710938 3047.429688 2330.941406 3015.480469 2289.179688 2957.460938 C 2250.96875 2904.378906 2224.679688 2832.898438 2215.140625 2756.199219 C 2205.109375 2675.558594 2214.308594 2596.839844 2241.058594 2534.550781 C 2270.769531 2465.359375 2318.738281 2423.328125 2376.140625 2416.191406 C 2381.691406 2415.5 2387.328125 2415.148438 2392.921875 2415.148438 C 2446.980469 2415.148438 2499.75 2447.101562 2541.511719 2505.121094 C 2579.710938 2558.199219 2606.011719 2629.679688 2615.550781 2706.378906 C 2625.578125 2787.03125 2616.371094 2865.75 2589.621094 2928.039062 C 2559.910156 2997.21875 2511.941406 3039.25 2454.539062 3046.390625 C 2449 3047.078125 2443.359375 3047.429688 2437.769531 3047.429688 "/>
<path fill-rule="nonzero" fill="rgb(85.797119%, 87.208557%, 16.98761%)" fill-opacity="1" d="M 3111.730469 2030.519531 C 3134.039062 2465.378906 2713.910156 2840.398438 2126.828125 2870.511719 C 1539.738281 2900.628906 1045.730469 2572.519531 1023.421875 2137.648438 C 1001.121094 1702.78125 1458.960938 1325.828125 2046.039062 1295.71875 C 2633.121094 1265.601562 3089.421875 1595.648438 3111.730469 2030.519531 "/>
<path fill-rule="nonzero" fill="rgb(19.889832%, 13.061523%, 8.534241%)" fill-opacity="1" d="M 2120.078125 1332.28125 C 2096.28125 1332.28125 2072.039062 1332.898438 2048.011719 1334.128906 C 1483.050781 1363.121094 1040.648438 1722.691406 1061.839844 2135.679688 C 1071.519531 2324.390625 1177.558594 2499.871094 1360.441406 2629.800781 C 1545.738281 2761.460938 1791.421875 2833.960938 2052.210938 2833.960938 C 2076.261719 2833.960938 2100.699219 2833.339844 2124.859375 2832.101562 C 2397.96875 2818.089844 2645.78125 2726.140625 2822.640625 2573.199219 C 2994.550781 2424.539062 3083.578125 2232.511719 3073.308594 2032.488281 C 3052.828125 1633.300781 2643.03125 1332.28125 2120.078125 1332.28125 Z M 2052.210938 2910.898438 C 1775.589844 2910.898438 1514.089844 2833.339844 1315.878906 2692.519531 C 1113.429688 2548.671875 995.921875 2352.320312 985.007812 2139.621094 C 979.210938 2026.558594 1003.398438 1915.5 1056.898438 1809.539062 C 1108.050781 1708.238281 1183.699219 1615.941406 1281.761719 1535.210938 C 1481.230469 1370.980469 1751.949219 1272.289062 2044.070312 1257.300781 C 2069.398438 1256 2094.96875 1255.339844 2120.078125 1255.339844 C 2393.5 1255.339844 2648.320312 1333.429688 2837.589844 1475.21875 C 3028.160156 1617.988281 3139.160156 1814.5 3150.148438 2028.539062 C 3161.648438 2252.78125 3063.210938 2466.871094 2872.960938 2631.390625 C 2683.210938 2795.480469 2418.929688 2894.039062 2128.800781 2908.929688 C 2103.339844 2910.238281 2077.570312 2910.898438 2052.210938 2910.898438 "/>
<path fill-rule="nonzero" fill="rgb(85.797119%, 87.208557%, 16.98761%)" fill-opacity="1" d="M 1397.5 2238.089844 C 1354.398438 2338.519531 1207.988281 2372.089844 1070.488281 2313.078125 C 932.984375 2254.058594 856.460938 2124.800781 899.5625 2024.371094 C 942.671875 1923.949219 1089.078125 1890.371094 1226.578125 1949.390625 C 1364.078125 2008.398438 1440.609375 2137.660156 1397.5 2238.089844 "/>
<path fill-rule="nonzero" fill="rgb(89.450073%, 76.954651%, 5.285645%)" fill-opacity="1" d="M 1108.710938 2222.140625 C 993.125 2172.53125 920.644531 2073.289062 926.070312 1983.261719 C 915.113281 1995.359375 906.128906 2009.078125 899.5625 2024.371094 C 856.460938 2124.800781 932.984375 2254.058594 1070.488281 2313.078125 C 1207.988281 2372.089844 1354.398438 2338.519531 1397.5 2238.089844 C 1404.371094 2222.078125 1408.191406 2205.339844 1409.21875 2188.261719 C 1348.21875 2255.640625 1225.28125 2272.171875 1108.710938 2222.140625 "/>
<path fill-rule="nonzero" fill="rgb(19.889832%, 13.061523%, 8.534241%)" fill-opacity="1" d="M 1089.921875 1958.75 C 1015.699219 1958.75 956.304688 1989.710938 934.910156 2039.550781 C 919.03125 2076.539062 924.53125 2120.96875 950.398438 2164.660156 C 978.558594 2212.21875 1026.589844 2252.378906 1085.660156 2277.730469 C 1125.269531 2294.730469 1167.28125 2303.710938 1207.148438 2303.710938 C 1281.371094 2303.710938 1340.761719 2272.75 1362.160156 2222.921875 C 1378.03125 2185.921875 1372.53125 2141.488281 1346.671875 2097.800781 C 1318.511719 2050.238281 1270.46875 2010.078125 1211.410156 1984.730469 C 1171.800781 1967.730469 1129.789062 1958.75 1089.921875 1958.75 Z M 1207.148438 2380.648438 C 1156.941406 2380.648438 1104.429688 2369.5 1055.320312 2348.421875 C 981.375 2316.691406 920.605469 2265.339844 884.195312 2203.851562 C 845.496094 2138.480469 838.398438 2069.351562 864.21875 2009.199219 C 897.941406 1930.628906 984.425781 1881.820312 1089.921875 1881.820312 C 1140.128906 1881.820312 1192.628906 1892.960938 1241.75 1914.039062 C 1315.691406 1945.78125 1376.460938 1997.121094 1412.871094 2058.609375 C 1451.570312 2123.980469 1458.671875 2193.109375 1432.851562 2253.261719 C 1399.128906 2331.828125 1312.640625 2380.648438 1207.148438 2380.648438 "/>
<path fill-rule="nonzero" fill="rgb(19.889832%, 13.061523%, 8.534241%)" fill-opacity="1" d="M 1675.171875 1817.601562 C 1677.671875 1866.320312 1640.199219 1907.851562 1591.480469 1910.339844 C 1542.761719 1912.839844 1501.238281 1875.371094 1498.738281 1826.648438 C 1496.238281 1777.941406 1533.710938 1736.421875 1582.429688 1733.921875 C 1631.148438 1731.421875 1672.671875 1768.890625 1675.171875 1817.601562 "/>
<path fill-rule="nonzero" fill="rgb(19.889832%, 13.061523%, 8.534241%)" fill-opacity="1" d="M 1337.410156 1683.679688 C 1339.910156 1732.398438 1302.441406 1773.921875 1253.71875 1776.421875 C 1205 1778.921875 1163.480469 1741.449219 1160.980469 1692.730469 C 1158.480469 1644.011719 1195.949219 1602.488281 1244.671875 1599.988281 C 1293.390625 1597.5 1334.910156 1634.960938 1337.410156 1683.679688 "/>
<path fill-rule="nonzero" fill="rgb(19.889832%, 13.061523%, 8.534241%)" fill-opacity="1" d="M 1028.839844 2138.261719 C 1015.199219 2138.261719 1003.851562 2127.511719 1003.238281 2113.75 L 1000.058594 2041.429688 C 999.433594 2027.28125 1010.398438 2015.300781 1024.550781 2014.679688 C 1038.710938 2014.03125 1050.671875 2025.019531 1051.289062 2039.171875 L 1054.480469 2111.488281 C 1055.101562 2125.640625 1044.140625 2137.621094 1029.988281 2138.238281 C 1029.601562 2138.261719 1029.21875 2138.261719 1028.839844 2138.261719 "/>
<path fill-rule="nonzero" fill="rgb(19.889832%, 13.061523%, 8.534241%)" fill-opacity="1" d="M 1186.78125 2220.789062 C 1177.53125 2220.789062 1168.601562 2215.78125 1164.019531 2207.011719 C 1157.46875 2194.449219 1162.339844 2178.960938 1174.890625 2172.410156 L 1239.070312 2138.921875 C 1251.628906 2132.359375 1267.121094 2137.230469 1273.671875 2149.789062 C 1280.21875 2162.339844 1275.359375 2177.828125 1262.800781 2184.378906 L 1198.621094 2217.878906 C 1194.828125 2219.859375 1190.78125 2220.789062 1186.78125 2220.789062 "/>
<path fill-rule="nonzero" fill="rgb(85.797119%, 87.208557%, 16.98761%)" fill-opacity="1" d="M 2019.980469 2787.628906 C 2014.921875 2941.660156 1937.75 3064.128906 1847.609375 3061.171875 C 1757.488281 3058.199219 1688.53125 2930.929688 1693.601562 2776.890625 C 1698.660156 2622.851562 1775.839844 2500.378906 1865.96875 2503.351562 C 1956.101562 2506.308594 2025.050781 2633.589844 2019.980469 2787.628906 "/>
<path fill-rule="nonzero" fill="rgb(89.450073%, 76.954651%, 5.285645%)" fill-opacity="1" d="M 1847.621094 2970.128906 C 1769.75 2967.570312 1713.769531 2913.75 1701.578125 2788.53125 C 1700.648438 2798.339844 1693.929688 2766.78125 1693.601562 2776.890625 C 1688.53125 2930.929688 1757.488281 3058.210938 1847.621094 3061.171875 C 1937.75 3064.128906 2014.921875 2941.660156 2019.980469 2787.628906 C 2020.671875 2766.660156 2021.898438 2807.351562 2019.980469 2787.628906 C 1958.949219 2919.050781 1931.828125 2972.898438 1847.621094 2970.128906 "/>
<path fill-rule="nonzero" fill="rgb(19.889832%, 13.061523%, 8.534241%)" fill-opacity="1" d="M 2042.191406 2788.691406 C 2042.191406 2788.691406 2043.011719 2791.488281 2044.160156 2796.730469 C 2044.699219 2799.421875 2045.421875 2802.390625 2045.898438 2806.621094 C 2046.378906 2810.699219 2046.96875 2815.53125 2047.28125 2820.75 C 2047.871094 2831.121094 2048.070312 2843.789062 2046.578125 2858.230469 C 2045.21875 2872.679688 2042.101562 2888.828125 2037.621094 2906.289062 C 2033.128906 2923.761719 2027.140625 2942.539062 2018.941406 2962 C 2010.738281 2981.449219 2000.429688 3001.660156 1986.480469 3021.398438 C 1972.511719 3041.011719 1955.011719 3060.578125 1931.589844 3076.269531 C 1919.910156 3084.070312 1906.71875 3090.828125 1892.21875 3095.488281 C 1888.550781 3096.558594 1884.871094 3097.628906 1881.140625 3098.570312 C 1877.351562 3099.339844 1873.53125 3100.070312 1869.699219 3100.699219 C 1865.820312 3101.140625 1861.921875 3101.550781 1858.03125 3101.871094 L 1852.148438 3101.988281 L 1849.210938 3102.019531 L 1847.738281 3102.03125 L 1847 3102.039062 L 1846.640625 3102.039062 C 1845.730469 3102 1848.148438 3102.128906 1844.5 3101.941406 L 1836.238281 3101.371094 C 1831.941406 3100.851562 1827.371094 3100.148438 1822.980469 3099.378906 C 1819.101562 3098.519531 1815.390625 3097.578125 1811.609375 3096.601562 C 1807.929688 3095.46875 1804.289062 3094.230469 1800.679688 3092.941406 C 1786.421875 3087.441406 1773.578125 3079.910156 1762.300781 3071.421875 C 1739.648438 3054.398438 1723.210938 3033.710938 1710.359375 3013.199219 C 1697.390625 2992.628906 1688.359375 2971.648438 1681.320312 2951.648438 C 1674.320312 2931.621094 1669.238281 2912.429688 1666.628906 2894.480469 C 1663.878906 2876.558594 1663.128906 2860.03125 1663.429688 2845.480469 C 1663.691406 2830.921875 1665.328125 2818.320312 1667 2808.058594 C 1668.851562 2797.800781 1670.78125 2789.851562 1672.46875 2784.480469 C 1673.308594 2781.800781 1673.949219 2779.75 1674.390625 2778.371094 C 1674.871094 2776.988281 1675.121094 2776.28125 1675.121094 2776.28125 C 1678.660156 2766.191406 1689.710938 2760.871094 1699.800781 2764.410156 C 1705.640625 2766.460938 1709.878906 2771.019531 1711.730469 2776.460938 L 1712.078125 2777.488281 C 1712.078125 2777.488281 1712.300781 2778.171875 1712.730469 2779.460938 C 1713.121094 2780.761719 1713.691406 2782.671875 1714.441406 2785.171875 C 1715.808594 2790.148438 1717.871094 2797.390625 1720.148438 2806.449219 C 1722.460938 2815.351562 1725.269531 2826.160156 1728.488281 2838.558594 C 1731.679688 2850.769531 1735.230469 2864.351562 1739.429688 2878.828125 C 1743.761719 2893.261719 1748.261719 2908.78125 1754.558594 2924.300781 C 1755.351562 2926.238281 1756.140625 2928.191406 1756.941406 2930.148438 C 1757.800781 2932.070312 1758.671875 2934 1759.550781 2935.929688 C 1761.230469 2939.859375 1763.25 2943.589844 1765.128906 2947.46875 C 1769.210938 2954.96875 1773.320312 2962.628906 1778.160156 2969.671875 C 1787.570312 2983.980469 1799.078125 2996.628906 1811.269531 3005.75 C 1817.378906 3010.289062 1823.699219 3013.828125 1830.011719 3016.191406 C 1831.601562 3016.660156 1833.148438 3017.28125 1834.71875 3017.820312 C 1836.28125 3018.179688 1837.910156 3018.640625 1839.390625 3019.050781 C 1840.449219 3019.160156 1841.308594 3019.390625 1842.46875 3019.710938 L 1850.71875 3020.398438 C 1847.25 3020.199219 1849.851562 3020.339844 1849.109375 3020.300781 L 1849.261719 3020.289062 L 1849.558594 3020.289062 L 1850.160156 3020.269531 L 1851.359375 3020.269531 L 1853.769531 3020.300781 C 1855.371094 3020.140625 1856.96875 3019.980469 1858.570312 3019.898438 C 1860.179688 3019.609375 1861.789062 3019.289062 1863.410156 3019.089844 C 1865.03125 3018.699219 1866.648438 3018.261719 1868.289062 3017.910156 C 1874.820312 3016.078125 1881.480469 3013.050781 1888 3009 C 1894.519531 3004.921875 1900.949219 2999.941406 1907.050781 2994.28125 C 1913.199219 2988.671875 1918.839844 2982.101562 1924.191406 2975.371094 C 1929.589844 2968.648438 1934.398438 2961.328125 1939 2954.050781 C 1941.171875 2950.289062 1943.46875 2946.691406 1945.429688 2942.859375 C 1946.449219 2940.96875 1947.460938 2939.101562 1948.46875 2937.238281 C 1949.410156 2935.320312 1950.351562 2933.421875 1951.28125 2931.539062 C 1958.691406 2916.390625 1964.53125 2901.179688 1969.101562 2886.78125 C 1973.679688 2872.359375 1976.839844 2858.75 1980.109375 2846.699219 C 1983.390625 2834.640625 1986.121094 2823.949219 1988.738281 2815.109375 C 1990.011719 2810.710938 1991.109375 2806.929688 1992.210938 2803.53125 C 1993.371094 2800.28125 1994.210938 2796.859375 1995.050781 2794.378906 C 1996.699219 2789.28125 1997.78125 2786.558594 1997.78125 2786.558594 C 2002.589844 2774.5 2016.28125 2768.628906 2028.339844 2773.449219 C 2035.28125 2776.21875 2040.199219 2782.039062 2042.191406 2788.691406 "/>
<path fill-rule="nonzero" fill="rgb(85.797119%, 87.208557%, 16.98761%)" fill-opacity="1" d="M 2909.550781 2512.800781 C 2969.390625 2654.828125 2950.519531 2798.351562 2867.421875 2833.359375 C 2784.308594 2868.371094 2668.441406 2781.609375 2608.601562 2639.578125 C 2548.769531 2497.550781 2567.628906 2354.019531 2650.738281 2319.011719 C 2733.839844 2284 2849.71875 2370.761719 2909.550781 2512.800781 "/>
<path fill-rule="nonzero" fill="rgb(89.450073%, 76.954651%, 5.285645%)" fill-opacity="1" d="M 2909.550781 2512.800781 C 2904.429688 2500.648438 2898.898438 2488.921875 2893.019531 2477.628906 C 2939.28125 2607.089844 2902.011719 2698.261719 2823.609375 2731.289062 C 2747.601562 2763.308594 2659.328125 2729.558594 2599.03125 2614.929688 C 2601.96875 2623.128906 2605.140625 2631.359375 2608.601562 2639.578125 C 2668.441406 2781.609375 2784.308594 2868.371094 2867.421875 2833.359375 C 2950.519531 2798.351562 2969.390625 2654.828125 2909.550781 2512.800781 "/>
<path fill-rule="nonzero" fill="rgb(19.889832%, 13.061523%, 8.534241%)" fill-opacity="1" d="M 2894.339844 2425.859375 C 2894.339844 2425.859375 2896.5 2428.160156 2900.378906 2432.550781 C 2902.269531 2434.769531 2904.621094 2437.519531 2907.371094 2440.738281 C 2910.121094 2444.359375 2913.269531 2448.730469 2916.738281 2453.609375 C 2918.410156 2456.050781 2920.390625 2458.691406 2922.050781 2461.371094 C 2923.738281 2464.089844 2925.519531 2466.941406 2927.371094 2469.898438 C 2929.199219 2472.878906 2931.109375 2475.988281 2933.011719 2479.269531 C 2934.789062 2482.589844 2936.640625 2486.039062 2938.550781 2489.601562 C 2939.488281 2491.390625 2940.441406 2493.210938 2941.410156 2495.058594 C 2941.890625 2495.988281 2942.378906 2496.929688 2942.859375 2497.871094 L 2943.230469 2498.578125 L 2943.511719 2499.25 L 2943.589844 2499.410156 L 2943.75 2499.75 L 2944.398438 2501.101562 C 2946.140625 2504.710938 2947.839844 2508.421875 2949.609375 2512.289062 C 2951.460938 2516.621094 2953.300781 2521.089844 2955.140625 2525.691406 C 2956.910156 2530.21875 2958.558594 2534.769531 2960.238281 2539.5 C 2966.789062 2558.410156 2972.519531 2579.449219 2976.878906 2602.230469 C 2981.28125 2625 2984.148438 2649.550781 2984.289062 2675.511719 C 2984.53125 2701.429688 2981.78125 2728.820312 2974.210938 2756.761719 C 2970.421875 2770.730469 2965.101562 2784.789062 2957.929688 2798.578125 C 2950.738281 2812.328125 2941.648438 2825.890625 2929.898438 2837.910156 C 2918.230469 2849.929688 2903.96875 2860.359375 2888.25 2867.660156 L 2885.308594 2869.019531 L 2883.828125 2869.691406 L 2883.101562 2870.03125 C 2884.328125 2869.550781 2880.988281 2870.878906 2881.238281 2870.769531 L 2880.96875 2870.871094 L 2876.648438 2872.449219 C 2874.601562 2873.320312 2868.820312 2875.039062 2864.28125 2876.25 C 2863.128906 2876.539062 2861.808594 2876.941406 2860.800781 2877.128906 L 2857.648438 2877.738281 L 2851.371094 2878.898438 C 2847.179688 2879.488281 2842.988281 2879.910156 2838.820312 2880.269531 C 2822.160156 2881.28125 2806.101562 2879.398438 2791.328125 2875.808594 C 2776.53125 2872.179688 2762.96875 2866.828125 2750.5 2860.691406 C 2725.539062 2848.339844 2705.050781 2832.699219 2687.351562 2816.78125 C 2669.75 2800.730469 2655.039062 2784.160156 2642.828125 2768.039062 C 2630.691406 2751.871094 2621.101562 2736.148438 2613.488281 2721.851562 C 2605.910156 2707.53125 2600.371094 2694.609375 2596.160156 2683.878906 C 2594.140625 2678.269531 2592.328125 2673.261719 2590.75 2668.898438 C 2589.570312 2664.839844 2588.558594 2661.390625 2587.738281 2658.589844 C 2586.179688 2652.960938 2585.421875 2649.929688 2585.421875 2649.929688 C 2581.941406 2636.121094 2590.308594 2622.109375 2604.109375 2618.640625 C 2614.921875 2615.910156 2625.878906 2620.511719 2631.789062 2629.230469 C 2631.789062 2629.230469 2633.53125 2631.828125 2636.679688 2636.75 C 2638.21875 2639.230469 2640.109375 2642.289062 2642.339844 2645.878906 L 2642.550781 2646.21875 L 2642.660156 2646.390625 L 2642.710938 2646.46875 C 2642.621094 2646.261719 2642.988281 2647.070312 2642.511719 2646.019531 L 2642.949219 2646.660156 C 2643.230469 2647.089844 2643.511719 2647.53125 2643.808594 2647.96875 C 2644.390625 2648.871094 2644.988281 2649.789062 2645.609375 2650.738281 C 2646.839844 2652.648438 2648.160156 2654.660156 2649.550781 2656.800781 C 2655.28125 2665.210938 2662.078125 2675.410156 2670.308594 2686.660156 C 2678.570312 2697.878906 2688.121094 2710.21875 2699.070312 2722.949219 C 2710.089844 2735.578125 2722.460938 2748.75 2736.660156 2760.75 C 2750.828125 2772.640625 2766.761719 2783.679688 2783.628906 2791.191406 C 2800.441406 2798.761719 2817.980469 2802.738281 2833.101562 2801.390625 C 2834.960938 2801.128906 2836.828125 2800.898438 2838.660156 2800.621094 L 2841.351562 2800.011719 L 2842.691406 2799.738281 C 2843.179688 2799.660156 2843.308594 2799.539062 2843.640625 2799.449219 C 2844.960938 2798.941406 2845.160156 2799.28125 2848.78125 2797.789062 L 2853.070312 2796.148438 L 2853.339844 2796.050781 C 2853.78125 2795.878906 2850.609375 2797.128906 2852.019531 2796.570312 L 2852.320312 2796.410156 L 2852.921875 2796.101562 L 2854.140625 2795.488281 C 2860.640625 2792.320312 2866.578125 2787.941406 2872.011719 2782.210938 C 2882.960938 2770.851562 2891.480469 2753.910156 2896.710938 2735.050781 C 2902.058594 2716.160156 2904.378906 2695.609375 2904.640625 2675.339844 C 2904.929688 2655.039062 2902.941406 2634.980469 2899.871094 2616.050781 C 2899.210938 2611.308594 2898.148438 2606.660156 2897.320312 2602.058594 C 2896.390625 2597.46875 2895.308594 2592.96875 2894.351562 2588.53125 C 2893.210938 2584.121094 2892.089844 2579.78125 2890.988281 2575.519531 C 2889.78125 2571.28125 2888.601562 2567.121094 2887.441406 2563.039062 C 2886.210938 2558.988281 2885 2555.019531 2883.820312 2551.140625 C 2882.589844 2547.441406 2881.429688 2543.800781 2880.359375 2540.21875 C 2878.988281 2536.238281 2877.648438 2532.359375 2876.359375 2528.578125 L 2875.878906 2527.171875 L 2875.769531 2526.808594 L 2875.710938 2526.628906 C 2875.78125 2526.800781 2875.460938 2526.011719 2875.859375 2526.960938 L 2875.621094 2526.320312 C 2875.300781 2525.46875 2874.988281 2524.628906 2874.671875 2523.789062 C 2874.058594 2522.101562 2873.460938 2520.429688 2872.859375 2518.800781 C 2871.699219 2515.5 2870.578125 2512.308594 2869.5 2509.230469 C 2868.390625 2506.160156 2867.171875 2503.261719 2866.121094 2500.421875 C 2863.980469 2494.738281 2862.089844 2489.410156 2860.238281 2485.03125 C 2858.449219 2480.488281 2856.949219 2476.421875 2855.558594 2472.761719 C 2853.898438 2468.851562 2852.5 2465.53125 2851.359375 2462.839844 C 2849.171875 2457.398438 2848.078125 2454.449219 2848.078125 2454.449219 C 2842.761719 2440.078125 2850.109375 2424.121094 2864.488281 2418.808594 C 2875.261719 2414.828125 2886.941406 2417.988281 2894.339844 2425.859375 "/>
<path fill-rule="nonzero" fill="rgb(19.889832%, 13.061523%, 8.534241%)" fill-opacity="1" d="M 1926.769531 1481.550781 C 1926.828125 1481.53125 1927.101562 1481.351562 1928.488281 1480.679688 C 1929.671875 1480.121094 1931.421875 1479.289062 1933.699219 1478.210938 C 1938 1476.300781 1944.171875 1473.460938 1952.050781 1470.460938 C 1959.949219 1467.488281 1969.5 1463.839844 1980.628906 1460.519531 C 1991.738281 1457.109375 2004.320312 1453.480469 2018.210938 1450.378906 C 2032.078125 1447.078125 2047.25 1444.328125 2063.359375 1441.898438 C 2071.429688 1440.820312 2079.71875 1439.570312 2088.238281 1438.820312 C 2096.738281 1437.890625 2105.449219 1437.199219 2114.320312 1436.671875 C 2118.75 1436.320312 2123.230469 1436.191406 2127.738281 1436.03125 C 2132.25 1435.871094 2136.789062 1435.71875 2141.359375 1435.558594 C 2145.929688 1435.558594 2150.53125 1435.558594 2155.148438 1435.558594 C 2159.769531 1435.539062 2164.421875 1435.570312 2169.078125 1435.769531 C 2178.410156 1436.039062 2187.800781 1436.410156 2197.210938 1437.171875 C 2201.910156 1437.539062 2206.640625 1437.78125 2211.351562 1438.25 L 2225.460938 1439.800781 C 2244.300781 1441.851562 2262.96875 1445.039062 2281.238281 1448.640625 C 2290.359375 1450.480469 2299.308594 1452.769531 2308.199219 1454.789062 C 2317.050781 1456.96875 2325.660156 1459.589844 2334.191406 1461.921875 C 2351.109375 1467.078125 2367.328125 1472.460938 2382.359375 1478.410156 C 2386.128906 1479.859375 2389.851562 1481.289062 2393.511719 1482.710938 C 2397.109375 1484.261719 2400.660156 1485.789062 2404.148438 1487.300781 C 2407.621094 1488.820312 2411.039062 1490.308594 2414.390625 1491.78125 C 2417.730469 1493.28125 2421.050781 1494.648438 2424.191406 1496.238281 C 2436.78125 1502.5 2448.421875 1507.96875 2458.25 1513.761719 C 2468.171875 1519.339844 2476.878906 1524.039062 2483.691406 1528.570312 C 2497.488281 1537.269531 2505.160156 1542.488281 2505.160156 1542.488281 C 2518.660156 1551.679688 2522.148438 1570.070312 2512.960938 1583.558594 C 2505.171875 1595.011719 2490.761719 1599.261719 2478.328125 1594.691406 L 2477.03125 1594.199219 C 2477.03125 1594.199219 2468.851562 1591.191406 2454.898438 1585.46875 C 2451.421875 1584.019531 2447.570312 1582.441406 2443.269531 1580.941406 C 2439.039062 1579.328125 2434.460938 1577.589844 2429.570312 1575.730469 C 2427.128906 1574.800781 2424.621094 1573.839844 2422.019531 1572.851562 C 2419.441406 1571.851562 2416.691406 1571.050781 2413.949219 1570.050781 C 2408.441406 1568.109375 2402.660156 1566.070312 2396.621094 1563.941406 C 2390.609375 1561.78125 2384.179688 1559.988281 2377.671875 1557.789062 C 2374.410156 1556.730469 2371.078125 1555.640625 2367.710938 1554.539062 C 2364.308594 1553.558594 2360.851562 1552.570312 2357.351562 1551.558594 C 2343.410156 1547.328125 2328.558594 1543.488281 2313.199219 1539.679688 C 2305.480469 1537.949219 2297.671875 1536.011719 2289.710938 1534.359375 C 2281.730469 1532.820312 2273.710938 1531.011719 2265.539062 1529.628906 C 2249.238281 1526.71875 2232.621094 1524.140625 2215.929688 1522.238281 L 2203.421875 1520.851562 C 2199.25 1520.421875 2195.070312 1520.128906 2190.898438 1519.761719 C 2186.738281 1519.441406 2182.578125 1518.96875 2178.429688 1518.78125 C 2174.269531 1518.550781 2170.128906 1518.328125 2166 1518.109375 C 2161.878906 1517.808594 2157.769531 1517.671875 2153.679688 1517.589844 C 2149.578125 1517.46875 2145.511719 1517.359375 2141.460938 1517.238281 C 2133.371094 1517.261719 2125.351562 1517.03125 2117.488281 1517.261719 C 2101.75 1517.441406 2086.550781 1518.289062 2072.140625 1519.300781 C 2057.769531 1520.5 2044.160156 1521.808594 2031.699219 1523.539062 C 2025.429688 1524.300781 2019.511719 1525.328125 2013.808594 1526.089844 C 2008.179688 1527.058594 2002.78125 1527.859375 1997.800781 1528.859375 C 1987.78125 1530.75 1979.109375 1532.511719 1972.078125 1534.160156 C 1965.03125 1535.800781 1959.640625 1537.140625 1956.078125 1538.101562 C 1954.328125 1538.589844 1952.960938 1538.929688 1952.359375 1539.070312 C 1951.738281 1539.199219 1950.988281 1539.46875 1951.050781 1539.441406 C 1935.058594 1546.148438 1916.660156 1538.621094 1909.960938 1522.640625 C 1903.261719 1506.648438 1910.78125 1488.25 1926.769531 1481.550781 "/>
<path fill-rule="nonzero" fill="rgb(92.460632%, 90.52887%, 28.756714%)" fill-opacity="1" d="M 2348.609375 1738.03125 C 2313.089844 1738.03125 2243.460938 1705.421875 2160.519531 1698.398438 C 2148.089844 1697.351562 2135.859375 1696.921875 2123.921875 1696.921875 C 2095.269531 1696.921875 2068.359375 1699.429688 2044.578125 1701.941406 C 2020.800781 1704.449219 2000.160156 1706.949219 1984.078125 1706.960938 C 1959.46875 1706.960938 1945.519531 1701.078125 1947.28125 1680.351562 C 1951.289062 1632.96875 2029.570312 1599.878906 2129.269531 1599.878906 C 2142.109375 1599.878906 2155.289062 1600.421875 2168.71875 1601.558594 C 2286.488281 1611.53125 2378.300781 1662.96875 2373.769531 1716.460938 C 2372.429688 1732.269531 2363.53125 1738.03125 2348.609375 1738.03125 "/>
<path fill-rule="nonzero" fill="rgb(86.643982%, 85.089111%, 12.77771%)" fill-opacity="1" d="M 2213.371094 2667.589844 C 2136.890625 2667.589844 2065.339844 2660.539062 2003.820312 2651.101562 C 1996.210938 2624.941406 1986.171875 2601.230469 1974.171875 2580.851562 C 2868.96875 2417.449219 2759.078125 1599.878906 2759.078125 1599.878906 C 2759.078125 1599.878906 3129.378906 1886.351562 2944.511719 2272.761719 C 2916.011719 2324.601562 2884.070312 2370.050781 2849.5 2409.769531 C 2801.191406 2348.320312 2742.378906 2311.25 2690.019531 2311.25 C 2676.390625 2311.25 2663.191406 2313.769531 2650.738281 2319.011719 C 2576.109375 2350.449219 2553.289062 2469.410156 2592.738281 2596.199219 C 2467.539062 2649.941406 2334.300781 2667.601562 2213.371094 2667.589844 "/>
<path fill-rule="nonzero" fill="rgb(86.643982%, 85.089111%, 12.77771%)" fill-opacity="1" d="M 2003.820312 2651.101562 C 1879.660156 2632.058594 1796.410156 2603.308594 1796.410156 2603.308594 C 1859.679688 2598.558594 1918.839844 2590.960938 1974.171875 2580.851562 C 1986.171875 2601.230469 1996.210938 2624.941406 2003.820312 2651.101562 "/>
<path fill-rule="nonzero" fill="rgb(86.643982%, 85.089111%, 12.77771%)" fill-opacity="1" d="M 2592.738281 2596.199219 C 2553.289062 2469.410156 2576.109375 2350.449219 2650.738281 2319.011719 C 2663.191406 2313.769531 2676.390625 2311.25 2690.019531 2311.25 C 2742.378906 2311.25 2801.191406 2348.320312 2849.5 2409.769531 C 2773.800781 2496.769531 2685.511719 2556.378906 2592.738281 2596.199219 "/>
<path fill-rule="nonzero" fill="rgb(85.797119%, 87.208557%, 16.98761%)" fill-opacity="1" d="M 2732.871094 785.449219 C 2732.871094 918.980469 2624.628906 1027.21875 2491.101562 1027.21875 C 2357.570312 1027.21875 2249.320312 918.980469 2249.320312 785.449219 C 2249.320312 651.921875 2357.570312 543.671875 2491.101562 543.671875 C 2624.628906 543.671875 2732.871094 651.921875 2732.871094 785.449219 "/>
<path fill-rule="nonzero" fill="rgb(89.450073%, 76.954651%, 5.285645%)" fill-opacity="1" d="M 2732.871094 785.441406 C 2732.871094 918.96875 2624.628906 1027.210938 2491.101562 1027.210938 C 2439.648438 1027.210938 2391.941406 1011.148438 2352.75 983.75 C 2359.519531 984.878906 2366.378906 985.441406 2373.328125 985.441406 C 2425.101562 985.441406 2471.890625 954.058594 2505.320312 903.539062 C 2537.558594 854.871094 2557.390625 788.5 2557.390625 715.289062 C 2557.390625 705.371094 2557.03125 695.601562 2556.289062 685.960938 C 2552.398438 632.820312 2538 584.28125 2516.191406 544.941406 C 2637.929688 557.5 2732.871094 660.359375 2732.871094 785.441406 "/>
<path fill-rule="nonzero" fill="rgb(89.450073%, 76.954651%, 5.285645%)" fill-opacity="1" d="M 2610.03125 785.449219 C 2610.03125 851.128906 2556.78125 904.378906 2491.101562 904.378906 C 2425.410156 904.378906 2372.171875 851.128906 2372.171875 785.449219 C 2372.171875 719.761719 2425.410156 666.511719 2491.101562 666.511719 C 2556.78125 666.511719 2610.03125 719.761719 2610.03125 785.449219 "/>
<path fill-rule="nonzero" fill="rgb(73.883057%, 61.990356%, 10.479736%)" fill-opacity="1" d="M 2610.03125 785.441406 C 2610.03125 846.328125 2542.808594 904.378906 2478.21875 898.359375 C 2510.460938 849.699219 2560.351562 832.058594 2557.390625 715.289062 C 2557.140625 705.371094 2557.03125 695.601562 2556.289062 685.960938 C 2588.648438 707.210938 2610.03125 743.808594 2610.03125 785.441406 "/>
<path fill-rule="nonzero" fill="rgb(19.889832%, 13.061523%, 8.534241%)" fill-opacity="1" d="M 2491.101562 692.160156 C 2439.660156 692.160156 2397.808594 734.011719 2397.808594 785.449219 C 2397.808594 836.890625 2439.660156 878.738281 2491.101562 878.738281 C 2542.539062 878.738281 2584.390625 836.890625 2584.390625 785.449219 C 2584.390625 734.011719 2542.539062 692.160156 2491.101562 692.160156 Z M 2491.101562 930.03125 C 2411.378906 930.03125 2346.519531 865.171875 2346.519531 785.449219 C 2346.519531 705.730469 2411.378906 640.871094 2491.101562 640.871094 C 2570.820312 640.871094 2635.671875 705.730469 2635.671875 785.449219 C 2635.671875 865.171875 2570.820312 930.03125 2491.101562 930.03125 "/>
<path fill-rule="nonzero" fill="rgb(19.889832%, 13.061523%, 8.534241%)" fill-opacity="1" d="M 2491.101562 569.308594 C 2371.921875 569.308594 2274.96875 666.269531 2274.96875 785.449219 C 2274.96875 904.621094 2371.921875 1001.578125 2491.101562 1001.578125 C 2610.269531 1001.578125 2707.230469 904.621094 2707.230469 785.449219 C 2707.230469 666.269531 2610.269531 569.308594 2491.101562 569.308594 Z M 2491.101562 1052.871094 C 2343.640625 1052.871094 2223.679688 932.898438 2223.679688 785.449219 C 2223.679688 637.988281 2343.640625 518.019531 2491.101562 518.019531 C 2638.550781 518.019531 2758.519531 637.988281 2758.519531 785.449219 C 2758.519531 932.898438 2638.550781 1052.871094 2491.101562 1052.871094 "/>
<path fill-rule="nonzero" fill="rgb(85.797119%, 87.208557%, 16.98761%)" fill-opacity="1" d="M 2491.421875 1412.988281 C 2491.421875 1462.828125 2476.339844 1509.148438 2450.488281 1547.648438 C 2443.058594 1543.699219 2434.929688 1539.730469 2426.351562 1535.359375 C 2425.460938 1534.921875 2424.570312 1534.5 2423.679688 1534.089844 C 2418.089844 1531.410156 2412.25 1528.859375 2406.21875 1526.191406 C 2402.71875 1524.640625 2399.148438 1523.101562 2395.53125 1521.5 C 2391.878906 1520.011719 2388.140625 1518.558594 2384.339844 1517.101562 C 2377.421875 1514.308594 2370.269531 1511.671875 2362.910156 1509.089844 C 2354.148438 1506.03125 2345.128906 1503.121094 2335.859375 1500.238281 C 2334.46875 1499.851562 2333.070312 1499.46875 2331.671875 1499.078125 C 2329.148438 1498.339844 2326.628906 1497.601562 2324.078125 1496.890625 L 2324.039062 1496.890625 C 2319.300781 1495.519531 2314.519531 1494.179688 2309.648438 1492.96875 C 2304.929688 1491.871094 2300.148438 1490.710938 2295.359375 1489.609375 C 2292.671875 1488.960938 2289.960938 1488.339844 2287.230469 1487.738281 C 2285.660156 1487.390625 2284.078125 1487.03125 2282.480469 1486.699219 C 2278.589844 1485.929688 2274.710938 1485.191406 2270.789062 1484.480469 C 2256.121094 1481.75 2241.21875 1479.371094 2226.230469 1477.769531 L 2211.96875 1476.191406 C 2207.21875 1475.71875 2202.449219 1475.480469 2197.691406 1475.121094 C 2193.421875 1474.769531 2189.171875 1474.5 2184.898438 1474.320312 C 2179.699219 1474.058594 2174.480469 1473.878906 2169.320312 1473.730469 C 2164.621094 1473.550781 2159.929688 1473.519531 2155.269531 1473.550781 C 2152.601562 1473.550781 2149.929688 1473.550781 2147.289062 1473.578125 L 2141.351562 1473.578125 C 2132.261719 1473.941406 2123.300781 1474.148438 2114.480469 1474.738281 C 2114.328125 1474.738281 2114.210938 1474.769531 2114.070312 1474.769531 C 2105.128906 1475.328125 2096.339844 1476.078125 2087.761719 1477.058594 C 2079.179688 1477.828125 2070.808594 1479.128906 2062.671875 1480.261719 C 2058.128906 1480.96875 2053.648438 1481.691406 2049.261719 1482.460938 C 2038.960938 1484.238281 2029.160156 1486.199219 2019.890625 1488.421875 C 2012.089844 1464.699219 2007.871094 1439.320312 2007.871094 1412.988281 C 2007.871094 1279.460938 2116.109375 1171.21875 2249.648438 1171.21875 C 2258.109375 1171.21875 2266.480469 1171.660156 2274.738281 1172.488281 C 2276.628906 1172.699219 2278.53125 1172.910156 2280.429688 1173.140625 C 2284.46875 1173.679688 2288.449219 1174.269531 2292.429688 1174.980469 L 2292.550781 1175.011719 C 2296.5 1175.699219 2300.378906 1176.5 2304.25 1177.421875 C 2305.96875 1177.800781 2307.691406 1178.21875 2309.378906 1178.640625 C 2311.640625 1179.230469 2313.890625 1179.820312 2316.121094 1180.480469 C 2317.929688 1180.980469 2319.738281 1181.511719 2321.550781 1182.078125 C 2323.449219 1182.671875 2325.320312 1183.300781 2327.191406 1183.921875 C 2328.851562 1184.480469 2330.488281 1185.050781 2332.121094 1185.640625 C 2332.511719 1185.761719 2332.859375 1185.910156 2333.21875 1186.058594 C 2334.941406 1186.679688 2336.628906 1187.328125 2338.289062 1187.988281 C 2340.140625 1188.699219 2341.941406 1189.441406 2343.761719 1190.210938 C 2345.570312 1190.980469 2347.378906 1191.761719 2349.160156 1192.589844 C 2350.828125 1193.328125 2352.511719 1194.128906 2354.179688 1194.910156 C 2357.800781 1196.648438 2361.359375 1198.46875 2364.898438 1200.398438 C 2366.621094 1201.320312 2368.308594 1202.269531 2370 1203.25 C 2371.960938 1204.371094 2373.859375 1205.5 2375.761719 1206.691406 C 2377.179688 1207.550781 2378.578125 1208.410156 2379.96875 1209.300781 C 2381.609375 1210.339844 2383.210938 1211.410156 2384.839844 1212.511719 C 2386.628906 1213.730469 2388.378906 1214.941406 2390.101562 1216.191406 C 2391.351562 1217.050781 2392.570312 1217.941406 2393.78125 1218.859375 C 2398.769531 1222.539062 2403.578125 1226.429688 2408.238281 1230.5 C 2409.128906 1231.269531 2410.019531 1232.039062 2410.910156 1232.851562 C 2412.78125 1234.539062 2414.648438 1236.230469 2416.460938 1237.980469 C 2417.621094 1239.078125 2418.78125 1240.179688 2419.910156 1241.308594 C 2424.480469 1245.851562 2428.871094 1250.570312 2433.03125 1255.441406 C 2435.191406 1257.898438 2437.238281 1260.421875 2439.261719 1262.980469 C 2444.539062 1269.628906 2449.449219 1276.550781 2453.988281 1283.730469 C 2454.789062 1284.949219 2455.558594 1286.160156 2456.28125 1287.410156 C 2456.359375 1287.5 2456.421875 1287.621094 2456.480469 1287.738281 C 2457.460938 1289.308594 2458.378906 1290.890625 2459.269531 1292.460938 C 2459.359375 1292.578125 2459.421875 1292.699219 2459.480469 1292.808594 C 2460.25 1294.121094 2460.960938 1295.429688 2461.679688 1296.730469 C 2462.359375 1297.949219 2463.011719 1299.171875 2463.671875 1300.410156 C 2464.320312 1301.660156 2464.980469 1302.910156 2465.601562 1304.148438 C 2466.75 1306.410156 2467.851562 1308.671875 2468.921875 1310.980469 C 2469.429688 1312.050781 2469.929688 1313.148438 2470.398438 1314.25 C 2473.519531 1321.21875 2476.339844 1328.351562 2478.78125 1335.679688 C 2479.398438 1337.460938 2479.988281 1339.238281 2480.53125 1341.03125 C 2480.558594 1341.121094 2480.589844 1341.238281 2480.648438 1341.351562 C 2481.148438 1343.011719 2481.660156 1344.648438 2482.101562 1346.308594 C 2482.550781 1347.820312 2482.960938 1349.339844 2483.378906 1350.878906 C 2483.699219 1352.128906 2484.03125 1353.410156 2484.328125 1354.679688 C 2484.570312 1355.550781 2484.769531 1356.398438 2484.980469 1357.289062 C 2485.21875 1358.300781 2485.460938 1359.308594 2485.671875 1360.351562 C 2485.839844 1361.148438 2486.019531 1361.988281 2486.199219 1362.820312 C 2486.410156 1363.769531 2486.621094 1364.71875 2486.789062 1365.699219 C 2487 1366.679688 2487.179688 1367.660156 2487.359375 1368.640625 C 2487.589844 1369.789062 2487.800781 1370.949219 2487.980469 1372.140625 C 2488.25 1373.589844 2488.488281 1375.078125 2488.691406 1376.589844 C 2488.929688 1378.019531 2489.140625 1379.46875 2489.320312 1380.960938 C 2489.410156 1381.640625 2489.488281 1382.320312 2489.578125 1383.03125 C 2489.730469 1384.160156 2489.851562 1385.289062 2489.96875 1386.449219 C 2490.5 1391.109375 2490.859375 1395.800781 2491.101562 1400.550781 C 2491.300781 1404.671875 2491.421875 1408.800781 2491.421875 1412.988281 "/>
<path fill-rule="nonzero" fill="rgb(89.450073%, 76.954651%, 5.285645%)" fill-opacity="1" d="M 2491.421875 1412.988281 C 2491.421875 1462.828125 2476.339844 1509.148438 2450.488281 1547.648438 C 2443.058594 1543.699219 2434.929688 1539.730469 2426.351562 1535.359375 C 2425.460938 1534.921875 2424.570312 1534.5 2423.679688 1534.089844 C 2418.089844 1531.410156 2412.25 1528.859375 2406.21875 1526.191406 C 2402.71875 1524.640625 2399.148438 1523.101562 2395.53125 1521.5 C 2391.878906 1520.011719 2388.140625 1518.558594 2384.339844 1517.101562 C 2377.421875 1514.308594 2370.269531 1511.671875 2362.910156 1509.089844 C 2354.148438 1506.03125 2345.128906 1503.121094 2335.859375 1500.238281 C 2334.46875 1499.851562 2333.070312 1499.46875 2331.671875 1499.078125 C 2329.148438 1498.339844 2326.628906 1497.601562 2324.078125 1496.890625 L 2324.039062 1496.890625 C 2319.300781 1495.519531 2314.519531 1494.179688 2309.648438 1492.96875 C 2304.929688 1491.871094 2300.148438 1490.710938 2295.359375 1489.609375 C 2292.671875 1488.960938 2289.960938 1488.339844 2287.230469 1487.738281 C 2297.300781 1464.589844 2304.988281 1439.050781 2309.851562 1411.828125 C 2309.921875 1411.648438 2309.941406 1411.449219 2309.980469 1411.269531 C 2313.300781 1392.621094 2315.289062 1373.121094 2315.789062 1353.109375 C 2315.910156 1349.699219 2315.941406 1346.28125 2315.941406 1342.839844 C 2315.941406 1334.519531 2315.699219 1326.328125 2315.140625 1318.230469 C 2315.050781 1316.648438 2314.960938 1315.078125 2314.839844 1313.5 C 2313.949219 1301.21875 2312.5 1289.160156 2310.511719 1277.410156 C 2306.109375 1251.519531 2299.199219 1227.121094 2290.109375 1204.789062 C 2285.539062 1193.449219 2280.371094 1182.671875 2274.738281 1172.488281 C 2276.628906 1172.699219 2278.53125 1172.910156 2280.429688 1173.140625 C 2284.46875 1173.648438 2288.480469 1174.269531 2292.429688 1174.980469 L 2292.550781 1175.011719 C 2296.5 1175.699219 2300.378906 1176.5 2304.25 1177.421875 C 2305.96875 1177.800781 2307.691406 1178.21875 2309.378906 1178.640625 C 2311.640625 1179.230469 2313.890625 1179.820312 2316.121094 1180.480469 C 2317.929688 1180.980469 2319.738281 1181.511719 2321.550781 1182.078125 C 2323.449219 1182.671875 2325.320312 1183.300781 2327.191406 1183.921875 C 2328.851562 1184.480469 2330.488281 1185.050781 2332.121094 1185.640625 C 2332.511719 1185.761719 2332.859375 1185.910156 2333.21875 1186.058594 C 2334.941406 1186.679688 2336.628906 1187.328125 2338.289062 1187.988281 C 2340.140625 1188.699219 2341.941406 1189.441406 2343.761719 1190.210938 C 2345.570312 1190.980469 2347.378906 1191.761719 2349.160156 1192.589844 C 2350.828125 1193.328125 2352.511719 1194.128906 2354.179688 1194.910156 C 2357.800781 1196.648438 2361.359375 1198.46875 2364.898438 1200.398438 C 2366.621094 1201.320312 2368.308594 1202.269531 2370 1203.25 C 2371.960938 1204.371094 2373.859375 1205.5 2375.761719 1206.691406 C 2377.179688 1207.550781 2378.578125 1208.410156 2379.96875 1209.300781 C 2381.609375 1210.339844 2383.210938 1211.410156 2384.839844 1212.511719 C 2386.628906 1213.730469 2388.378906 1214.941406 2390.101562 1216.191406 C 2391.351562 1217.050781 2392.570312 1217.941406 2393.78125 1218.859375 C 2398.769531 1222.539062 2403.578125 1226.429688 2408.238281 1230.5 C 2409.128906 1231.269531 2410.019531 1232.039062 2410.910156 1232.851562 C 2412.78125 1234.539062 2414.648438 1236.230469 2416.460938 1237.980469 C 2417.621094 1239.078125 2418.78125 1240.179688 2419.910156 1241.308594 C 2424.480469 1245.851562 2428.871094 1250.570312 2433.03125 1255.441406 C 2435.171875 1257.898438 2437.238281 1260.421875 2439.261719 1262.980469 C 2444.539062 1269.628906 2449.449219 1276.550781 2453.988281 1283.730469 C 2454.789062 1284.949219 2455.558594 1286.160156 2456.28125 1287.410156 C 2456.359375 1287.5 2456.421875 1287.621094 2456.480469 1287.738281 C 2457.460938 1289.308594 2458.378906 1290.890625 2459.269531 1292.460938 C 2459.359375 1292.578125 2459.421875 1292.699219 2459.480469 1292.808594 C 2460.25 1294.121094 2460.960938 1295.429688 2461.679688 1296.730469 C 2462.359375 1297.949219 2463.011719 1299.171875 2463.671875 1300.410156 C 2464.320312 1301.660156 2464.980469 1302.910156 2465.601562 1304.148438 C 2466.75 1306.410156 2467.851562 1308.671875 2468.921875 1310.980469 C 2469.429688 1312.050781 2469.929688 1313.148438 2470.398438 1314.25 C 2473.519531 1321.21875 2476.339844 1328.351562 2478.78125 1335.679688 C 2479.398438 1337.460938 2479.988281 1339.238281 2480.53125 1341.03125 C 2480.558594 1341.121094 2480.589844 1341.238281 2480.648438 1341.351562 C 2481.148438 1343.011719 2481.660156 1344.648438 2482.101562 1346.308594 C 2482.550781 1347.820312 2482.960938 1349.339844 2483.378906 1350.878906 C 2483.699219 1352.128906 2484.03125 1353.410156 2484.328125 1354.679688 C 2484.570312 1355.550781 2484.769531 1356.398438 2484.980469 1357.289062 C 2485.21875 1358.300781 2485.460938 1359.308594 2485.671875 1360.351562 C 2485.839844 1361.148438 2486.019531 1361.988281 2486.199219 1362.820312 C 2486.410156 1363.769531 2486.621094 1364.71875 2486.789062 1365.699219 C 2487 1366.679688 2487.179688 1367.660156 2487.359375 1368.640625 C 2487.589844 1369.789062 2487.800781 1370.949219 2487.980469 1372.140625 C 2488.25 1373.589844 2488.488281 1375.078125 2488.691406 1376.589844 C 2488.929688 1378.019531 2489.140625 1379.46875 2489.320312 1380.960938 C 2489.410156 1381.640625 2489.488281 1382.320312 2489.578125 1383.03125 C 2489.730469 1384.160156 2489.851562 1385.289062 2489.96875 1386.449219 C 2490.5 1391.109375 2490.859375 1395.800781 2491.101562 1400.550781 C 2491.300781 1404.671875 2491.421875 1408.800781 2491.421875 1412.988281 "/>
<path fill-rule="nonzero" fill="rgb(89.450073%, 76.954651%, 5.285645%)" fill-opacity="1" d="M 2368.578125 1412.988281 C 2368.578125 1413.878906 2368.550781 1414.800781 2368.550781 1415.691406 C 2367.800781 1448.488281 2353.789062 1478 2331.671875 1499.078125 C 2329.148438 1498.339844 2326.628906 1497.601562 2324.078125 1496.890625 L 2324.039062 1496.890625 C 2319.300781 1495.519531 2314.519531 1494.179688 2309.648438 1492.96875 C 2304.929688 1491.871094 2300.148438 1490.710938 2295.359375 1489.609375 C 2292.671875 1488.960938 2289.960938 1488.339844 2287.230469 1487.738281 C 2285.660156 1487.390625 2284.078125 1487.03125 2282.480469 1486.699219 C 2278.589844 1485.929688 2274.710938 1485.191406 2270.789062 1484.480469 C 2256.121094 1481.75 2241.21875 1479.371094 2226.230469 1477.769531 L 2211.96875 1476.191406 C 2207.21875 1475.71875 2202.449219 1475.480469 2197.691406 1475.121094 C 2193.421875 1474.769531 2189.171875 1474.5 2184.898438 1474.320312 C 2179.699219 1474.058594 2174.480469 1473.878906 2169.320312 1473.730469 C 2164.621094 1473.550781 2159.929688 1473.519531 2155.269531 1473.550781 C 2152.601562 1473.550781 2149.929688 1473.550781 2147.289062 1473.578125 C 2136.769531 1455.859375 2130.71875 1435.109375 2130.71875 1412.988281 C 2130.71875 1347.289062 2183.980469 1294.058594 2249.648438 1294.058594 C 2273.71875 1294.058594 2296.140625 1301.21875 2314.839844 1313.5 C 2316.058594 1314.308594 2317.25 1315.140625 2318.429688 1315.96875 C 2318.910156 1316.300781 2319.390625 1316.648438 2319.859375 1317.011719 C 2321.128906 1317.929688 2322.378906 1318.910156 2323.628906 1319.890625 C 2324.578125 1320.628906 2325.53125 1321.398438 2326.449219 1322.171875 C 2327.371094 1322.949219 2328.261719 1323.75 2329.148438 1324.550781 C 2330.011719 1325.289062 2330.808594 1326.058594 2331.648438 1326.839844 C 2335.949219 1330.929688 2339.929688 1335.328125 2343.550781 1340.019531 C 2344.171875 1340.851562 2344.800781 1341.648438 2345.421875 1342.480469 C 2346.039062 1343.308594 2346.640625 1344.171875 2347.230469 1345 C 2347.828125 1345.871094 2348.421875 1346.730469 2348.980469 1347.589844 C 2352.691406 1353.171875 2355.898438 1359.109375 2358.601562 1365.28125 C 2358.808594 1365.761719 2359.019531 1366.230469 2359.21875 1366.699219 C 2359.609375 1367.601562 2359.96875 1368.488281 2360.320312 1369.378906 C 2362.578125 1375.078125 2364.390625 1380.960938 2365.730469 1387.039062 C 2365.96875 1388.078125 2366.199219 1389.121094 2366.378906 1390.160156 C 2366.5 1390.75 2366.621094 1391.351562 2366.710938 1391.941406 C 2366.878906 1392.800781 2367 1393.660156 2367.148438 1394.519531 C 2367.390625 1396.070312 2367.601562 1397.609375 2367.769531 1399.191406 L 2367.769531 1399.359375 C 2367.949219 1400.789062 2368.101562 1402.210938 2368.191406 1403.640625 L 2368.21875 1403.898438 C 2368.339844 1405.300781 2368.429688 1406.699219 2368.460938 1408.121094 C 2368.488281 1408.238281 2368.488281 1408.390625 2368.488281 1408.511719 C 2368.550781 1409.988281 2368.578125 1411.480469 2368.578125 1412.988281 "/>
<path fill-rule="nonzero" fill="rgb(73.883057%, 61.990356%, 10.479736%)" fill-opacity="1" d="M 2368.578125 1412.988281 C 2368.578125 1413.878906 2368.550781 1414.800781 2368.550781 1415.691406 C 2367.539062 1446.328125 2349.761719 1475.988281 2324.078125 1496.890625 L 2324.039062 1496.890625 C 2319.300781 1495.519531 2314.519531 1494.179688 2309.648438 1492.96875 C 2304.929688 1491.871094 2300.148438 1490.710938 2295.359375 1489.609375 C 2292.671875 1488.960938 2289.960938 1488.339844 2287.230469 1487.738281 C 2285.660156 1487.390625 2284.078125 1487.03125 2282.480469 1486.699219 C 2278.589844 1485.929688 2274.710938 1485.191406 2270.789062 1484.480469 C 2286.761719 1465.980469 2301.75 1445.441406 2309.851562 1411.828125 C 2309.921875 1411.648438 2309.941406 1411.449219 2309.980469 1411.269531 C 2313.769531 1395.320312 2316 1376.441406 2316.058594 1353.441406 C 2316.058594 1349.988281 2316.03125 1346.460938 2315.941406 1342.839844 C 2315.789062 1336.160156 2315.671875 1329.539062 2315.378906 1322.96875 C 2315.289062 1321.398438 2315.230469 1319.828125 2315.140625 1318.230469 C 2315.050781 1316.648438 2314.960938 1315.078125 2314.839844 1313.5 C 2316.058594 1314.308594 2317.25 1315.140625 2318.429688 1315.96875 C 2318.910156 1316.300781 2319.390625 1316.648438 2319.859375 1317.011719 C 2321.128906 1317.929688 2322.378906 1318.910156 2323.628906 1319.890625 C 2324.578125 1320.628906 2325.53125 1321.398438 2326.449219 1322.171875 C 2327.371094 1322.949219 2328.261719 1323.75 2329.148438 1324.550781 C 2330.011719 1325.289062 2330.808594 1326.058594 2331.648438 1326.839844 C 2335.949219 1330.929688 2339.929688 1335.328125 2343.550781 1340.019531 C 2344.171875 1340.851562 2344.800781 1341.648438 2345.421875 1342.480469 C 2346.039062 1343.308594 2346.640625 1344.171875 2347.230469 1345 C 2347.828125 1345.871094 2348.421875 1346.730469 2348.980469 1347.589844 C 2352.691406 1353.171875 2355.898438 1359.109375 2358.601562 1365.28125 C 2358.808594 1365.761719 2359.019531 1366.230469 2359.21875 1366.699219 C 2359.609375 1367.601562 2359.96875 1368.488281 2360.320312 1369.378906 C 2362.578125 1375.078125 2364.390625 1380.960938 2365.730469 1387.039062 C 2365.96875 1388.078125 2366.199219 1389.121094 2366.378906 1390.160156 C 2366.5 1390.75 2366.621094 1391.351562 2366.710938 1391.941406 C 2366.878906 1392.800781 2367 1393.660156 2367.148438 1394.519531 C 2367.390625 1396.070312 2367.601562 1397.609375 2367.769531 1399.191406 L 2367.769531 1399.359375 C 2367.949219 1400.789062 2368.101562 1402.210938 2368.191406 1403.640625 L 2368.21875 1403.898438 C 2368.339844 1405.300781 2368.429688 1406.699219 2368.460938 1408.121094 C 2368.488281 1408.238281 2368.488281 1408.390625 2368.488281 1408.511719 C 2368.550781 1409.988281 2368.578125 1411.480469 2368.578125 1412.988281 "/>
<path fill-rule="nonzero" fill="rgb(19.889832%, 13.061523%, 8.534241%)" fill-opacity="1" d="M 2310.511719 1277.410156 C 2291.921875 1269.03125 2271.320312 1264.371094 2249.648438 1264.371094 C 2167.710938 1264.371094 2101.03125 1331.019531 2101.03125 1412.988281 C 2101.03125 1435.019531 2105.839844 1455.949219 2114.480469 1474.738281 C 2123.300781 1474.148438 2132.261719 1473.941406 2141.351562 1473.578125 L 2147.289062 1473.578125 C 2149.929688 1473.550781 2152.601562 1473.550781 2155.269531 1473.550781 C 2159.929688 1473.519531 2164.621094 1473.550781 2169.320312 1473.730469 C 2174.480469 1473.878906 2179.699219 1474.058594 2184.898438 1474.320312 C 2169.699219 1458.289062 2160.410156 1436.710938 2160.410156 1412.988281 C 2160.410156 1363.769531 2200.460938 1323.75 2249.648438 1323.75 C 2275.828125 1323.75 2299.429688 1335.089844 2315.789062 1353.109375 C 2315.878906 1353.199219 2315.96875 1353.320312 2316.058594 1353.441406 C 2330.25 1369.261719 2338.890625 1390.128906 2338.890625 1412.988281 C 2338.890625 1445.5 2321.429688 1474.03125 2295.359375 1489.609375 C 2300.148438 1490.710938 2304.929688 1491.871094 2309.648438 1492.96875 C 2314.519531 1494.179688 2319.300781 1495.519531 2324.039062 1496.890625 L 2324.078125 1496.890625 C 2326.628906 1497.601562 2329.148438 1498.339844 2331.671875 1499.078125 C 2333.070312 1499.46875 2334.46875 1499.851562 2335.859375 1500.238281 C 2345.128906 1503.121094 2354.148438 1506.03125 2362.910156 1509.089844 C 2384.960938 1483.171875 2398.269531 1449.601562 2398.269531 1412.988281 C 2398.269531 1352.699219 2362.191406 1300.679688 2310.511719 1277.410156 "/>
<path fill-rule="nonzero" fill="rgb(19.889832%, 13.061523%, 8.534241%)" fill-opacity="1" d="M 2249.648438 1141.519531 C 2099.960938 1141.519531 1978.179688 1263.300781 1978.179688 1412.988281 C 1978.179688 1441.898438 1982.730469 1469.78125 1991.160156 1495.941406 C 1999.210938 1493.558594 2007.898438 1491.191406 2017.171875 1489.078125 C 2018.058594 1488.871094 2018.980469 1488.628906 2019.890625 1488.421875 C 2029.160156 1486.199219 2038.960938 1484.238281 2049.261719 1482.460938 C 2041.691406 1460.691406 2037.558594 1437.308594 2037.558594 1412.988281 C 2037.558594 1296.050781 2132.710938 1200.898438 2249.648438 1200.898438 C 2263.480469 1200.898438 2277.019531 1202.238281 2290.109375 1204.789062 C 2387.75 1223.730469 2461.738281 1309.878906 2461.738281 1412.988281 C 2461.738281 1457.96875 2447.671875 1499.738281 2423.679688 1534.089844 C 2424.570312 1534.5 2425.460938 1534.921875 2426.351562 1535.359375 C 2434.929688 1539.730469 2443.058594 1543.699219 2450.488281 1547.648438 C 2453.988281 1549.550781 2457.339844 1551.421875 2460.519531 1553.320312 C 2466.191406 1556.589844 2471.480469 1559.589844 2476.191406 1562.410156 C 2504.578125 1519.539062 2521.109375 1468.148438 2521.109375 1412.988281 C 2521.109375 1263.300781 2399.328125 1141.519531 2249.648438 1141.519531 "/>
<path fill-rule="nonzero" fill="rgb(89.450073%, 76.954651%, 5.285645%)" fill-opacity="1" d="M 1675.289062 1604.941406 C 1675.289062 1604.941406 1869.609375 1559.210938 1961.128906 1693.210938 C 1961.128906 1693.210938 1938.839844 1530.539062 1884.738281 1505.878906 C 1830.648438 1481.210938 1718.890625 1534.75 1675.289062 1604.941406 "/>
<path fill-rule="nonzero" fill="rgb(19.889832%, 13.061523%, 8.534241%)" fill-opacity="1" d="M 1615.101562 1636.210938 C 1615.101562 1636.210938 1615.199219 1635.558594 1615.378906 1634.300781 C 1615.46875 1633.660156 1615.589844 1632.878906 1615.75 1631.960938 C 1615.820312 1631.488281 1615.910156 1630.988281 1615.988281 1630.460938 C 1616.070312 1629.929688 1616.171875 1629.359375 1616.339844 1628.679688 C 1616.640625 1627.351562 1616.980469 1625.871094 1617.351562 1624.230469 C 1617.75 1622.578125 1618.199219 1620.878906 1618.691406 1619.03125 C 1619.171875 1617.179688 1619.71875 1615.191406 1620.371094 1613.101562 C 1621.019531 1611.011719 1621.671875 1608.75 1622.511719 1606.441406 C 1625.671875 1597.089844 1630.238281 1585.921875 1636.730469 1573.699219 C 1637.558594 1572.179688 1638.390625 1570.628906 1639.25 1569.058594 C 1640.128906 1567.511719 1641.03125 1565.929688 1641.941406 1564.339844 C 1643.828125 1561.191406 1645.769531 1557.921875 1647.921875 1554.691406 C 1652.148438 1548.171875 1656.910156 1541.5 1662.210938 1534.808594 C 1672.808594 1521.421875 1685.578125 1507.898438 1700.5 1495.179688 C 1715.410156 1482.421875 1732.46875 1470.570312 1751.28125 1459.859375 C 1760.730469 1454.550781 1770.601562 1449.511719 1781.058594 1445.019531 C 1791.488281 1440.46875 1802.5 1436.480469 1814.199219 1433.140625 C 1820.070312 1431.480469 1826.148438 1430.070312 1832.480469 1428.871094 C 1838.820312 1427.679688 1845.429688 1426.761719 1852.488281 1426.308594 C 1859.539062 1425.871094 1867.039062 1425.789062 1875.441406 1426.78125 C 1879.570312 1427.230469 1884.101562 1428.070312 1888.761719 1429.230469 C 1891.171875 1429.890625 1893.53125 1430.550781 1896.101562 1431.480469 C 1897.351562 1431.921875 1898.601562 1432.371094 1899.941406 1432.949219 L 1901.910156 1433.789062 L 1902.878906 1434.21875 L 1903.371094 1434.441406 L 1904.730469 1435.101562 L 1906.429688 1435.960938 L 1906.851562 1436.179688 L 1907.589844 1436.570312 L 1909.460938 1437.609375 L 1911.300781 1438.660156 C 1911.890625 1439.011719 1912.601562 1439.421875 1912.988281 1439.679688 L 1915.75 1441.46875 C 1916.691406 1442.070312 1917.539062 1442.679688 1918.398438 1443.289062 L 1920.949219 1445.140625 C 1922.53125 1446.378906 1924.191406 1447.628906 1925.671875 1448.898438 C 1931.71875 1453.960938 1936.800781 1459.199219 1941.351562 1464.460938 C 1950.421875 1474.96875 1957.339844 1485.691406 1963.328125 1496.371094 C 1969.261719 1507.089844 1974.121094 1517.808594 1978.238281 1528.5 C 1982.359375 1539.191406 1985.710938 1549.851562 1988.46875 1560.390625 C 1994.03125 1581.449219 1997.210938 1602.078125 1998.679688 1621.710938 C 1999.398438 1631.519531 1999.761719 1641.078125 1999.648438 1650.328125 C 1999.539062 1659.570312 1998.96875 1668.5 1998.011719 1677.019531 C 1997.050781 1685.539062 1995.699219 1693.648438 1994.078125 1701.289062 C 1993.320312 1705.109375 1992.398438 1708.808594 1991.480469 1712.390625 C 1990.53125 1715.960938 1989.609375 1719.429688 1988.539062 1722.738281 C 1984.5 1736.039062 1979.71875 1747.199219 1975.320312 1756.101562 C 1970.910156 1765 1966.820312 1771.640625 1963.910156 1776.070312 C 1962.449219 1778.28125 1961.25 1779.941406 1960.460938 1781.050781 C 1959.648438 1782.160156 1959.230469 1782.730469 1959.230469 1782.730469 C 1951.699219 1793.03125 1937.238281 1795.28125 1926.941406 1787.738281 C 1920.121094 1782.761719 1916.828125 1774.738281 1917.570312 1766.898438 L 1917.75 1765.101562 C 1917.75 1765.101562 1917.980469 1762.648438 1918.589844 1758.21875 C 1919.148438 1753.761719 1920 1747.308594 1920.871094 1739.210938 C 1921.078125 1737.179688 1921.308594 1735.058594 1921.5 1732.820312 C 1921.609375 1731.710938 1921.730469 1730.578125 1921.839844 1729.421875 C 1921.929688 1728.261719 1922.019531 1727.070312 1922.109375 1725.851562 C 1922.550781 1721.03125 1922.871094 1715.820312 1923.160156 1710.289062 C 1923.75 1699.21875 1923.898438 1686.800781 1923.5 1673.359375 C 1923.300781 1666.640625 1922.929688 1659.660156 1922.359375 1652.460938 C 1921.789062 1645.261719 1921.03125 1637.839844 1919.871094 1630.269531 C 1918.710938 1622.699219 1917.25 1614.980469 1915.359375 1607.210938 C 1913.5 1599.441406 1911.328125 1591.601562 1908.699219 1583.839844 C 1906.101562 1576.078125 1903.050781 1568.398438 1899.699219 1560.929688 C 1898.03125 1557.191406 1896.199219 1553.558594 1894.351562 1549.980469 C 1892.488281 1546.398438 1890.53125 1542.929688 1888.46875 1539.628906 C 1884.429688 1532.988281 1879.960938 1526.921875 1875.671875 1522.191406 C 1873.519531 1519.839844 1871.410156 1517.878906 1869.648438 1516.429688 C 1869.199219 1516.039062 1868.800781 1515.800781 1868.398438 1515.460938 L 1867.851562 1515.089844 C 1867.671875 1514.960938 1867.488281 1514.820312 1867.339844 1514.75 C 1867.191406 1514.671875 1867.039062 1514.570312 1866.898438 1514.46875 C 1866.769531 1514.378906 1866.910156 1514.488281 1866.949219 1514.519531 L 1867.140625 1514.621094 L 1867.351562 1514.710938 L 1867.398438 1514.71875 L 1867.25 1514.640625 L 1866.828125 1514.429688 L 1865.128906 1513.570312 C 1865.558594 1513.78125 1863.851562 1512.941406 1866.050781 1514.019531 L 1866.101562 1514.050781 L 1866.199219 1514.109375 L 1866.421875 1514.199219 L 1866.609375 1514.261719 L 1866.691406 1514.308594 L 1866.78125 1514.328125 L 1866.828125 1514.328125 L 1866.808594 1514.339844 L 1866.75 1514.308594 C 1866.46875 1514.28125 1866 1514.109375 1865.070312 1514.03125 C 1864.25 1513.921875 1863.078125 1513.851562 1861.859375 1513.78125 C 1861.179688 1513.789062 1860.550781 1513.75 1859.839844 1513.761719 C 1859.101562 1513.789062 1858.421875 1513.761719 1857.628906 1513.820312 C 1854.570312 1513.980469 1851.128906 1514.339844 1847.539062 1514.878906 C 1843.941406 1515.429688 1840.199219 1516.199219 1836.378906 1517.109375 C 1828.730469 1518.921875 1820.898438 1521.378906 1813.148438 1524.21875 C 1805.398438 1527.078125 1797.738281 1530.359375 1790.28125 1533.898438 C 1782.859375 1537.5 1775.578125 1541.28125 1768.648438 1545.359375 C 1761.710938 1549.441406 1755.019531 1553.640625 1748.589844 1557.898438 C 1735.730469 1566.429688 1724.019531 1575.269531 1713.5 1583.910156 C 1703.011719 1592.578125 1693.738281 1601.078125 1685.71875 1608.96875 C 1677.679688 1616.851562 1671.011719 1624.199219 1665.488281 1630.371094 C 1662.761719 1633.488281 1660.300781 1636.289062 1658.21875 1638.789062 C 1656.148438 1641.230469 1654.378906 1643.300781 1652.960938 1644.980469 C 1652.601562 1645.371094 1652.25 1645.828125 1651.910156 1646.261719 C 1651.570312 1646.691406 1651.261719 1647.089844 1650.96875 1647.460938 C 1650.390625 1648.199219 1649.898438 1648.808594 1649.488281 1649.308594 C 1648.679688 1650.300781 1648.269531 1650.808594 1648.269531 1650.808594 C 1641.710938 1658.859375 1629.871094 1660.058594 1621.828125 1653.511719 C 1616.519531 1649.179688 1614.191406 1642.53125 1615.101562 1636.210938 "/>
</svg>
