<?xml version="1.0" encoding="UTF-8" standalone="no"?>
<svg
   xmlns:dc="http://purl.org/dc/elements/1.1/"
   xmlns:cc="http://creativecommons.org/ns#"
   xmlns:rdf="http://www.w3.org/1999/02/22-rdf-syntax-ns#"
   xmlns:svg="http://www.w3.org/2000/svg"
   xmlns="http://www.w3.org/2000/svg"
   viewBox="0 0 6666.6665 6666.6665"
   height="6666.6665"
   width="6666.6665"
   xml:space="preserve"
   id="svg2"
   version="1.1"><metadata
     id="metadata8"><rdf:RDF><cc:Work
         rdf:about=""><dc:format>image/svg+xml</dc:format><dc:type
           rdf:resource="http://purl.org/dc/dcmitype/StillImage" /></cc:Work></rdf:RDF></metadata><defs
     id="defs6" /><g
     transform="matrix(1.3333333,0,0,-1.3333333,0,6666.6667)"
     id="g10"><g
       transform="scale(0.1)"
       id="g12"><g
         transform="scale(3.06748)"
         id="g14"><path
           id="path16"
           style="fill:#fcf088;fill-opacity:1;fill-rule:nonzero;stroke:none"
           d="M 16300,0 H 0 V 16300 H 16300 V 0" /></g><g
         transform="scale(2.37362)"
         id="g18"><path
           id="path20"
           style="fill:#e9d448;fill-opacity:1;fill-rule:nonzero;stroke:none"
           d="m 10840,3711.63 c -3015.49,0 -5460.03,147.96 -5460.03,330.51 0,134.31 1324.26,249.96 3225.79,301.61 59.7,-84.39 140.71,-128.29 234.37,-128.33 0.08,0 0.13,0 0.17,0 v 0 0 c 0.04,0 0.12,0 0.21,0 95.8,0.08 204.75,45.96 317.7,141.22 529.7,10.36 1094.99,15.96 1681.79,15.96 3015.5,0 5460,-147.96 5460,-330.46 0,-182.55 -2444.5,-330.51 -5460,-330.51" /></g><g
         transform="scale(2.47366)"
         id="g22"><path
           id="path24"
           style="fill:#f9e219;fill-opacity:1;fill-rule:nonzero;stroke:none"
           d="m 4612.92,9928.19 c -390.27,217.81 -375.56,545.01 32.74,726.91 l 2592.27,1155.2 c 408.26,182 811.14,694.2 895.31,1138.3 l 534.27,2820 c 84.13,444.1 395.36,531.4 691.57,194 L 11240,13819.9 c 296.3,-337.4 900.5,-567.2 1342.8,-510.6 l 2808.2,359.5 c 442.2,56.6 619.9,-216.6 394.7,-607.1 l -1429.8,-2479.4 c -225.2,-390.5 -254.7,-1044.75 -65.5,-1453.89 L 15491.8,6530.6 c 189.2,-409.15 -12.3,-665.25 -447.7,-569.16 l -2764.6,610.27 c -435.4,96.09 -1057.8,-78.47 -1383.2,-387.97 L 8830.55,4218.8 c -325.35,-309.46 -627.45,-194.61 -671.4,255.29 l -278.77,2856.58 c -43.91,449.9 -399.13,996.21 -789.4,1214.11 L 4612.92,9928.19" /></g><g
         transform="scale(1.92599)"
         id="g26"><path
           id="path28"
           style="fill:#faf99f;fill-opacity:1;fill-rule:nonzero;stroke:none"
           d="m 5654.24,12971.6 c -217.5,214.3 -101.56,464.4 163.97,634 -274.25,-176.6 -330.27,-418.7 -163.97,-634 m 3641.87,2197.1 c 264.7,118 747.79,712.7 1046.89,1131.3 -201.7,-474.2 -622.01,-942 -1046.89,-1131.3" /></g><g
         transform="scale(1.95858)"
         id="g30"><path
           id="path32"
           style="fill:#f4f23e;fill-opacity:1;fill-rule:nonzero;stroke:none"
           d="m 6048.1,12507.6 c -236.35,69.4 -393.91,155.4 -487.96,248.1 -163.53,211.7 -108.44,449.8 161.24,623.5 44.68,28.5 93.64,54.7 146.03,78.1 l 3274,1459 v 0 c 417.8,186.1 831.11,646.1 1029.49,1112.4 75.2,105.4 138.7,199.4 183.6,271.3 124.6,-1009.9 -915.07,-1784 -1404.15,-2042.2 L 6048.1,12507.6" /></g><g
         transform="scale(2.45843)"
         id="g34"><path
           id="path36"
           style="fill:#faf99d;fill-opacity:1;fill-rule:nonzero;stroke:none"
           d="m 12519.8,13383.2 c -0.2,0 -0.4,0 -0.6,0 0.2,0 0.4,0 0.6,0 v 0 m 0,0 c 48.3,0 95.5,2.8 140.9,8.6 -45.4,-5.8 -92.5,-8.6 -140.9,-8.6 m -1205.4,517 c -0.9,1 -1.7,1.9 -2.5,2.8 0.8,-0.9 1.6,-1.8 2.5,-2.8 m -3.5,4 c -0.4,0.4 -0.9,0.9 -1.3,1.4 0.4,-0.5 0.9,-1 1.3,-1.4 m -2651.85,1634.1 c -4.6,0.6 -8.91,1.4 -13.06,2.4 9.77,20.3 18.63,44.3 26.97,71 l -13.91,-73.4 m 153.68,578.2 c 46.86,106.8 112.02,183.5 213.1,183.5 60.24,0 133.21,-27.2 222.66,-91.6 -65.57,40.2 -129.59,59.8 -189.47,59.8 -96.85,0 -182.72,-51.6 -246.29,-151.7" /></g><g
         transform="scale(2.45364)"
         id="g38"><path
           id="path40"
           style="fill:#f5f23b;fill-opacity:1;fill-rule:nonzero;stroke:none"
           d="m 12331,13043.6 c -426.3,0 -928.9,187.8 -1208.7,470.3 l -1616.36,1575.2 c -530.68,506.7 -733.31,465 -829.99,479.5 l 13.94,73.6 c 43.49,139.2 73.08,353.2 140.04,505.8 63.7,100.3 149.74,152 246.77,152 60,0 124.15,-19.7 189.84,-60 50.78,-36.5 106.87,-85 168.9,-147.2 l 1896.26,-2160.1 v 0 c 0.4,-0.4 0.8,-0.9 1.2,-1.4 0.4,-0.4 0.7,-0.8 1.1,-1.1 0.8,-1 1.6,-1.9 2.4,-2.8 269.4,-302.6 783.9,-517.9 1207.2,-518.1 0.2,0 0.4,0 0.6,0 v 0 0 h 0.1 c 48.4,0 95.6,2.8 141.1,8.6 v 0 l 1307.3,167.4 -1427.6,-520.4 c -73.8,-14.4 -152.5,-21.3 -234.1,-21.3" /></g><g
         transform="scale(2.39598)"
         id="g42"><path
           id="path44"
           style="fill:#fadc35;fill-opacity:1;fill-rule:nonzero;stroke:none"
           d="m 9072.76,4315.99 c 12.81,10.81 25.71,22.28 38.6,34.39 -12.89,-12.11 -25.79,-23.58 -38.6,-34.39 v 0 m 39.56,35.27 c 0.38,0.37 0.8,0.79 1.21,1.16 -0.41,-0.37 -0.83,-0.79 -1.21,-1.16 m 4.55,4.34 v 0 l 2132.73,2028.65 c 0.8,0.75 1.6,1.5 2.4,2.25 -0.8,-0.75 -1.6,-1.5 -2.4,-2.25 L 9116.87,4355.6 v 0 m -692.91,261.27 c -0.08,0.75 -0.17,1.54 -0.25,2.29 0,0 -62.52,125.88 -55.72,132.35 l 39.07,38.56 16.65,-170.91 c 0.08,-0.75 0.17,-1.54 0.25,-2.29 m 7284.54,1517.04 c 0,0 0,0 -0.1,0 0.1,0 0.1,0 0.1,0 v 0 m 0.1,0 c 323.8,0.08 453,246.16 285.5,608.44 167.5,-362.32 38.3,-608.4 -285.5,-608.44 m -174.4,20.33 c -0.8,0.16 -1.5,0.33 -2.3,0.5 l -2854.2,630.06 c -0.9,0.16 -1.7,0.33 -2.5,0.54 0.8,-0.21 1.6,-0.38 2.5,-0.54 l 2854.2,-630.06 c 0.8,-0.17 1.5,-0.34 2.3,-0.5 m -4279.7,234.56 c 274,257.39 747,423.16 1154.8,423.25 -407.8,-0.13 -880.8,-165.9 -1154.8,-423.25 m 1155.2,423.25 c 0,0 0,0 0,0 v 0 c 0,0 0,0 0,0 m 3889,6675.25 c 0.5,0.7 0.9,1.5 1.3,2.2 -0.4,-0.7 -0.8,-1.5 -1.3,-2.2 m -850.4,568.1 v 0 l 441.7,56.6 -441.8,-56.6 m 441.8,56.6 c 40.4,5.1 78.5,7.6 114.5,7.6 -35.9,0 -74.1,-2.5 -114.5,-7.6 m 114.7,7.6 c -0.1,0 -0.1,0 -0.2,0 v 0 c 0.1,0 0.1,0 0.2,0" /></g><g
         transform="scale(1.33363)"
         id="g46"><path
           id="path48"
           style="fill:#e8c11c;fill-opacity:1;fill-rule:nonzero;stroke:none"
           d="m 15734.2,7502.7 c -0.1,0 -0.2,0 -0.3,0 0.1,0 0.2,0 0.3,0 v 0 m 0.3,0 c 170.5,0.15 364.5,81.81 565.5,251.35 v 0 c -201,-169.54 -394.9,-251.2 -565.5,-251.35" /></g><g
         transform="scale(2.42661)"
         id="g50"><path
           id="path52"
           style="fill:#facf0e;fill-opacity:1;fill-rule:nonzero;stroke:none"
           d="m 8647.26,4123.37 c -0.04,0 -0.08,0 -0.17,0 -172.54,0.08 -301.24,152.31 -329.47,435.22 -0.08,0.74 -0.17,1.52 -0.25,2.26 l -16.44,168.76 2314.87,2286.28 c 265.1,252.16 818.9,401.91 1257.2,401.91 110.1,0 213.1,-9.47 302.2,-29.13 l 1837.4,-229.37 c 63.1,-13.93 121.4,-20.61 174.4,-20.61 319.8,0 447.4,243.01 282,600.8 l -799.3,2121.85 c -192.9,417.06 -162.9,1084.06 66.7,1482.06 l 1516.9,2534.6 436.1,55.8 v 0 c 39.9,5.1 77.6,7.6 113.1,7.6 v 0 c 0.1,0 0.1,0 0.1,0 365,-0.1 497.4,-261.5 291.6,-622.2 -0.4,-0.7 -0.8,-1.4 -1.2,-2.2 -0.4,-0.7 -0.8,-1.3 -1.2,-2 v 0 l -1457.5,-2527.5 c -127.8,-221.6 -193.8,-526.5 -193.9,-825.2 0,-237.9 41.6,-471.93 127.1,-656.88 l 1224.7,-2648.18 v 0 c 165.4,-357.7 37.8,-600.68 -281.9,-600.76 0,0 0,0 -0.1,0 0,0 0,0 -0.1,0 -52.3,0 -109.8,6.51 -172,20.07 -0.8,0.16 -1.5,0.33 -2.2,0.49 l -2818.3,622.11 c -0.8,0.16 -1.6,0.33 -2.4,0.53 -82,17.85 -170.4,26.38 -262.1,26.38 0,0 0,0 -0.1,0 v 0 0 c -0.1,0 -0.3,0 -0.4,0 -402.6,-0.09 -869.6,-163.77 -1140.2,-417.91 -0.8,-0.74 -1.6,-1.49 -2.4,-2.27 -0.8,-0.74 -1.6,-1.48 -2.4,-2.22 L 9001.79,4300.61 v 0 c -1.12,-1.07 -2.19,-2.1 -3.3,-3.13 -0.41,-0.37 -0.83,-0.78 -1.2,-1.15 -0.33,-0.29 -0.62,-0.58 -0.94,-0.87 -12.74,-11.95 -25.47,-23.28 -38.12,-33.96 -110.45,-93.17 -217.1,-138.05 -310.77,-138.13 -0.08,0 -0.16,0 -0.2,0" /></g><g
         transform="scale(2.48255)"
         id="g54"><path
           id="path56"
           style="fill:#3a1e16;fill-opacity:1;fill-rule:nonzero;stroke:none"
           d="m 13955.7,9834.32 c 13.5,300.48 87.9,581.98 209.4,792.68 l 1424.7,2470.5 c 58.5,101.5 73.1,172.9 75,215 2.6,59.2 -17.5,85.2 -32.9,99.6 -48.1,45 -148.7,61.5 -276,45.2 l -2798.2,-358.1 c -238.6,-30.6 -522.9,10.7 -800.4,116.2 -277.5,105.5 -518.4,264 -678.2,446 l -1874.17,2135 c -95.43,108.6 -195.12,164.8 -260.3,146.5 -65.17,-18.3 -122.49,-118.4 -149.56,-261.5 l -532.36,-2809.8 c -45.39,-239.7 -172.32,-501.3 -357.33,-736.5 -185.05,-235.2 -408.29,-418.8 -628.59,-517 L 4693.8,10467 c -131.48,-58.6 -215.06,-137.5 -218.12,-206 -3.1,-68.5 73.07,-154.7 198.75,-224.8 L 7143.58,8657.75 c 210.59,-117.58 416.43,-320.52 579.57,-571.43 163.14,-250.91 266.05,-522.81 289.74,-765.54 l 277.78,-2846.35 c 14.14,-144.89 62.23,-249.82 125.47,-273.87 63.24,-24.05 167.65,22.92 272.43,122.57 l 2058.33,1957.91 c 175.6,167.01 429.7,303.12 715.6,383.32 285.8,80.16 572.6,95.74 807.6,43.86 l 2754.7,-608.04 c 125.3,-27.67 227,-20.3 278.9,20.18 16.6,12.97 39,37.06 41.7,96.35 1.9,42.02 -6.1,114.44 -55.3,220.78 L 14093,9026 c -102,220.78 -150.8,507.83 -137.3,808.32 z m 2031.7,3463.58 c -5.1,-114.7 -45.1,-237.7 -118.8,-365.6 l -1424.7,-2470.5 c -94.2,-163.2 -154.5,-397.2 -165.5,-642.02 -11.1,-244.75 28,-483.25 107.1,-654.33 l 1197,-2588.46 c 61.9,-133.98 90.7,-260.06 85.6,-374.82 -6.3,-140.74 -65.9,-262.03 -167.7,-341.42 -91.5,-71.46 -260.4,-143.48 -544.7,-80.73 L 12201,6388.07 c -382.6,84.47 -947.4,-73.96 -1233.3,-345.9 L 8909.31,4084.27 c -275.29,-261.87 -498.4,-231.78 -606.88,-190.53 -108.48,41.24 -296.03,167.33 -333.17,548.02 l -277.82,2846.31 c -38.58,395.36 -360.91,891.1 -703.87,1082.56 L 4518.42,9749.09 c -330.27,184.36 -370.71,408.91 -365.39,526.41 5.27,117.4 65.7,337.5 411.19,491.5 l 2582.99,1151 c 358.78,159.9 724.37,624.7 798.33,1015 l 532.35,2809.8 c 71.18,375.9 269.28,484.6 381.06,515.9 111.74,31.3 336.63,41.3 587.3,-244.2 l 1874.15,-2135 c 260.4,-296.5 808.6,-505 1197.3,-455.3 l 2798.2,358.2 c 288.7,36.9 450.4,-50 535.3,-129.4 94.2,-88.2 142.6,-214.3 136.2,-355.1" /></g><g
         transform="scale(1.3714)"
         id="g58"><path
           id="path60"
           style="fill:#fad00e;fill-opacity:1;fill-rule:nonzero;stroke:none"
           d="m 15125.9,13337.1 c -58.9,575 -153.7,1168.7 -447.2,1676.2 -285.7,494 -750,839.1 -1243.8,1106.7 -99.8,54.1 -201.4,104.9 -303.8,154 -54.1,26 -117.6,19.5 -151.7,-35.6 -29.1,-47 -18.6,-125.7 35.6,-151.8 514.9,-247.2 1039.3,-550.7 1374,-1028.1 321.1,-458.1 432.1,-1019.6 499.2,-1564.8 8.5,-68.9 16,-137.9 23.1,-207 6.1,-59.9 79.7,-94.5 132.5,-82.1 64.1,15.1 88.2,72.7 82.1,132.5" /></g><g
         transform="scale(1.97801)"
         id="g62"><path
           id="path64"
           style="fill:#fbeb6e;fill-opacity:1;fill-rule:nonzero;stroke:none"
           d="m 13716.3,16144.6 c 343.1,-264.5 754.8,-400.3 1184.8,-426.4 430.3,-26.1 862.9,52.9 1278.9,155.7 95.6,23.6 60.8,172.4 -35,148.8 -399.4,-98.7 -808.5,-172.5 -1221.5,-152.6 -410.6,19.7 -800.2,152.7 -1126.7,404.4 -33,25.5 -84.9,8 -105.2,-24.7 -23.6,-38.1 -8.2,-79.8 24.7,-105.2" /></g><g
         transform="scale(1.94946)"
         id="g66"><path
           id="path68"
           style="fill:#fbeb6e;fill-opacity:1;fill-rule:nonzero;stroke:none"
           d="m 9616.97,14309.1 c 737.13,346.5 1226.73,1061.5 1391.13,1847.5 20.4,97.3 -127.8,143.4 -148.2,45.6 -157,-750.2 -612.9,-1425.7 -1317.31,-1756.9 -90.43,-42.5 -15.9,-178.6 74.38,-136.2" /></g></g></g></svg>